# 3ds Max Wavefront OBJ Exporter v0.99 - (c)2007 guruware
# File Created: 18.04.2023 22:00:53

mtllib Hat.mtl

#
# object Sphere001
#

v  1.8988 25.3206 0.2759
v  1.8988 24.7877 -5.0356
v  0.9659 24.7877 -4.9335
v  0.0689 24.7877 -4.6313
v  2.8317 24.7877 -4.9335
v  1.8988 23.2095 -10.1430
v  0.0689 23.2095 -9.9428
v  -0.7578 24.7877 -4.1404
v  -1.6907 23.2095 -9.3499
v  3.7287 24.7877 -4.6313
v  3.7287 23.2095 -9.9428
v  1.8988 20.6466 -14.8500
v  -0.7578 20.6466 -14.5594
v  -1.4824 24.7877 -3.4799
v  -3.3124 23.2095 -8.3871
v  -3.3124 20.6466 -13.6986
v  4.5554 24.7877 -4.1405
v  5.4883 23.2095 -9.3499
v  4.5554 20.6466 -14.5594
v  1.8988 17.1974 -18.9758
v  -1.4824 17.1974 -18.6059
v  -2.0771 24.7877 -2.6750
v  -4.7338 23.2095 -7.0914
v  -5.6666 20.6466 -12.3009
v  -4.7338 17.1974 -17.5103
v  5.2801 24.7877 -3.4799
v  7.1100 23.2095 -8.3871
v  7.1100 20.6466 -13.6987
v  5.2800 17.1974 -18.6059
v  1.8988 12.9947 -22.3617
v  -2.0771 12.9947 -21.9267
v  -2.5190 24.7877 -1.7567
v  -5.9003 23.2095 -5.5125
v  -7.7302 20.6466 -10.4197
v  -7.7302 17.1974 -15.7313
v  -5.9003 12.9947 -20.6385
v  5.8747 24.7877 -2.6750
v  8.5314 23.2095 -7.0914
v  9.4642 20.6466 -12.3009
v  8.5314 17.1974 -17.5103
v  5.8747 12.9947 -21.9267
v  1.8988 8.1998 -24.8776
v  -2.5190 8.1998 -24.3943
v  -2.7911 24.7877 -0.7603
v  -6.7671 23.2095 -3.7112
v  -9.4237 20.6466 -8.1276
v  -10.3566 17.1974 -13.3371
v  -9.4237 12.9947 -18.5466
v  -6.7671 8.1998 -22.9629
v  6.3166 24.7877 -1.7567
v  9.6979 23.2095 -5.5125
v  11.5278 20.6466 -10.4198
v  11.5278 17.1974 -15.7313
v  9.6979 12.9947 -20.6385
v  6.3166 8.1998 -24.3943
v  1.8988 2.9970 -26.4269
v  -2.7911 2.9970 -25.9139
v  -2.8830 24.7877 0.2759
v  -7.3008 23.2095 -1.7567
v  -10.6821 20.6466 -5.5125
v  -12.5120 17.1974 -10.4197
v  -12.5120 12.9947 -15.7313
v  -10.6821 8.1998 -20.6385
v  -7.3008 2.9970 -24.3943
v  6.5887 24.7877 -0.7603
v  10.5647 23.2095 -3.7112
v  13.2213 20.6466 -8.1276
v  14.1542 17.1974 -13.3371
v  13.2213 12.9947 -18.5466
v  10.5646 8.1998 -22.9629
v  6.5887 2.9970 -25.9139
v  1.8988 -2.4137 -26.9501
v  -2.8830 -2.4137 -26.4269
v  -2.7911 24.7877 1.3122
v  -7.4811 23.2095 0.2759
v  -11.4570 20.6466 -2.6750
v  -14.1136 17.1974 -7.0914
v  -15.0465 12.9947 -12.3009
v  -14.1136 8.1998 -17.5103
v  -11.4570 2.9970 -21.9267
v  -7.4811 -2.4137 -24.8776
v  6.6806 24.7877 0.2759
v  11.0984 23.2095 -1.7567
v  14.4797 20.6466 -5.5126
v  16.3096 17.1974 -10.4198
v  16.3096 12.9947 -15.7313
v  14.4797 8.1998 -20.6385
v  11.0984 2.9970 -24.3943
v  6.6806 -2.4137 -26.4270
v  -2.8767 -2.7856 -26.3917
v  1.8988 -2.7856 -26.9141
v  -2.5190 24.7877 2.3086
v  -7.3008 23.2095 2.3086
v  -11.7186 20.6466 0.2759
v  -15.0999 17.1974 -3.4799
v  -16.9298 12.9947 -8.3871
v  -16.9298 8.1998 -13.6986
v  -15.0999 2.9970 -18.6059
v  -11.7186 -2.4137 -22.3617
v  -7.4687 -2.7856 -24.8444
v  6.5888 24.7877 1.3121
v  11.2787 23.2095 0.2759
v  15.2546 20.6466 -2.6750
v  17.9112 17.1974 -7.0914
v  18.8441 12.9947 -12.3009
v  17.9112 8.1998 -17.5104
v  15.2546 2.9970 -21.9267
v  11.2786 -2.4137 -24.8777
v  6.6743 -2.7856 -26.3917
v  -2.0771 24.7877 3.2269
v  -6.7671 23.2095 4.2631
v  -11.4570 20.6466 3.2269
v  -15.4329 17.1974 0.2759
v  -18.0896 12.9947 -4.1404
v  -19.0224 8.1998 -9.3499
v  -18.0896 2.9970 -14.5594
v  -15.4329 -2.4137 -18.9758
v  -11.7007 -2.7856 -22.3318
v  6.3166 24.7877 2.3086
v  11.0985 23.2095 2.3085
v  15.5163 20.6466 0.2759
v  18.8975 17.1974 -3.4799
v  20.7274 12.9947 -8.3871
v  20.7274 8.1998 -13.6987
v  18.8975 2.9970 -18.6059
v  15.5162 -2.4137 -22.3617
v  11.2662 -2.7856 -24.8444
v  -1.4824 24.7877 4.0318
v  -5.9003 23.2095 6.0644
v  -10.6821 20.6466 6.0644
v  -15.0999 17.1974 4.0318
v  -18.4812 12.9947 0.2759
v  -20.3111 8.1998 -4.6313
v  -20.3111 2.9970 -9.9428
v  -18.4812 -2.4137 -14.8500
v  -15.4100 -2.7856 -18.9503
v  5.8748 24.7877 3.2269
v  10.5647 23.2095 4.2631
v  15.2546 20.6466 3.2268
v  19.2306 17.1974 0.2759
v  21.8872 12.9947 -4.1405
v  22.8201 8.1998 -9.3500
v  21.8872 2.9970 -14.5594
v  19.2305 -2.4137 -18.9758
v  15.4982 -2.7856 -22.3318
v  -0.7578 24.7877 4.6923
v  -4.7338 23.2095 7.6432
v  -9.4237 20.6466 8.6795
v  -14.1136 17.1974 7.6432
v  -18.0896 12.9947 4.6923
v  -20.7462 8.1998 0.2759
v  -21.6791 2.9970 -4.9335
v  -20.7462 -2.4137 -10.1430
v  -18.4542 -2.7856 -14.8301
v  5.2801 24.7877 4.0317
v  9.6979 23.2095 6.0644
v  14.4797 20.6466 6.0644
v  18.8975 17.1974 4.0317
v  22.2788 12.9947 0.2759
v  24.1087 8.1998 -4.6313
v  24.1087 2.9970 -9.9429
v  22.2788 -2.4137 -14.8501
v  19.2076 -2.7856 -18.9504
v  0.0689 24.7877 5.1831
v  -3.3124 23.2095 8.9390
v  -7.7302 20.6466 10.9716
v  -12.5120 17.1974 10.9716
v  -16.9298 12.9947 8.9390
v  -20.3111 8.1998 5.1832
v  -22.1410 2.9970 0.2759
v  -22.1410 -2.4137 -5.0356
v  -20.7163 -2.7856 -10.1293
v  4.5555 24.7877 4.6923
v  8.5314 23.2095 7.6432
v  13.2213 20.6466 8.6794
v  17.9113 17.1974 7.6432
v  21.8872 12.9947 4.6923
v  24.5438 8.1998 0.2759
v  25.4767 2.9970 -4.9336
v  24.5438 -2.4137 -10.1431
v  22.2518 -2.7856 -14.8301
v  0.9659 24.7877 5.4854
v  -1.6907 23.2095 9.9018
v  -5.6666 20.6466 12.8527
v  -10.3566 17.1974 13.8889
v  -15.0465 12.9947 12.8527
v  -19.0224 8.1998 9.9018
v  -21.6791 2.9970 5.4854
v  -22.6120 -2.4137 0.2759
v  -22.1092 -2.7856 -5.0286
v  3.7287 24.7877 5.1831
v  7.1100 23.2095 8.9390
v  11.5278 20.6466 10.9716
v  16.3096 17.1974 10.9716
v  20.7275 12.9947 8.9389
v  24.1087 8.1998 5.1831
v  25.9386 2.9970 0.2759
v  25.9386 -2.4137 -5.0356
v  24.5139 -2.7856 -10.1293
v  1.8988 24.7877 5.5875
v  0.0689 23.2095 10.4947
v  -3.3124 20.6466 14.2505
v  -7.7302 17.1974 16.2831
v  -12.5120 12.9947 16.2831
v  -16.9298 8.1998 14.2505
v  -20.3111 2.9970 10.4947
v  -22.1410 -2.4137 5.5875
v  -22.5796 -2.7856 0.2759
v  2.8317 24.7877 5.4854
v  5.4883 23.2095 9.9018
v  9.4643 20.6466 12.8527
v  14.1542 17.1974 13.8889
v  18.8442 12.9947 12.8527
v  22.8201 8.1998 9.9017
v  25.4767 2.9970 5.4854
v  26.4096 -2.4137 0.2759
v  25.9069 -2.7856 -5.0286
v  1.8988 23.2095 10.6949
v  -0.7578 20.6466 15.1113
v  -4.7337 17.1974 18.0622
v  -9.4237 12.9947 19.0984
v  -14.1136 8.1998 18.0622
v  -18.0896 -1.6150 15.1113
v  -20.7462 -2.4137 10.6949
v  -22.1092 -2.7856 5.5805
v  3.7287 23.2095 10.4947
v  7.1100 20.6466 14.2505
v  11.5278 17.1974 16.2831
v  16.3096 12.9947 16.2831
v  20.7275 8.1998 14.2505
v  24.1087 2.9970 10.4946
v  25.9386 -2.4137 5.5874
v  26.3772 -2.7856 0.2759
v  1.8988 20.6466 15.4019
v  -1.4824 17.1974 19.1577
v  -5.9002 12.9947 21.1904
v  -10.6821 8.1998 21.1904
v  -14.7741 1.4064 19.1577
v  -18.4811 -2.4137 15.4019
v  -20.7163 -2.7856 10.6811
v  4.5555 20.6466 15.1112
v  8.5314 17.1974 18.0622
v  13.2213 12.9947 19.0984
v  17.9113 8.1998 18.0622
v  22.0385 -1.2773 15.1112
v  24.5438 -2.4137 10.6948
v  25.9069 -2.7856 5.5804
v  1.8988 17.1974 19.5276
v  -2.0771 12.9947 22.4786
v  -6.7670 8.1998 23.5148
v  -11.0393 4.0089 22.4786
v  -17.9407 -5.0076 38.7010
v  -15.4379 -6.0684 39.6127
v  -12.4325 -1.9135 42.3186
v  -14.0226 -0.6730 41.2166
v  -18.4542 -2.7856 15.3819
v  5.2801 17.1974 19.1577
v  9.6979 12.9947 21.1903
v  14.4797 8.1998 21.1903
v  19.7762 0.7057 19.1577
v  22.2788 -2.4137 15.4019
v  24.5139 -2.7856 10.6811
v  1.8988 12.9947 22.9135
v  -2.5190 8.1998 24.9462
v  -8.2158 5.7578 24.9462
v  -9.2975 1.1390 44.7296
v  -10.6758 2.3704 43.5550
v  -15.4100 -2.7856 19.5022
v  -15.4329 -2.4137 19.5276
v  5.8748 12.9947 22.4786
v  10.5647 8.1998 23.5148
v  15.6544 3.7469 22.4785
v  17.5538 -0.6341 41.1959
v  16.4827 -1.9524 42.3393
v  18.9785 -5.8529 39.4978
v  21.4134 -4.7692 38.5740
v  22.2519 -2.7856 15.3819
v  1.8988 8.1998 25.4295
v  -2.8011 7.9444 26.4657
v  -5.6294 3.4799 46.4825
v  -6.9488 4.6866 45.2633
v  -11.7006 -2.7856 22.8836
v  -11.7186 -2.4137 22.9135
v  6.3167 8.1998 24.9462
v  11.5993 6.3073 24.9462
v  14.1402 2.4083 43.5348
v  13.4145 1.1011 44.7497
v  19.2306 -2.4137 19.5276
v  19.2077 -2.7856 19.5022
v  1.8204 8.6608 26.9788
v  -2.3175 5.0582 47.4890
v  -2.2366 6.3387 46.1950
v  -7.4686 -2.7856 25.3963
v  -7.4810 -2.4137 25.4295
v  7.3521 7.8907 26.4657
v  10.3201 4.7279 45.2413
v  9.8395 3.4385 46.5045
v  15.5163 -2.4137 22.9135
v  15.4983 -2.7856 22.8836
v  1.8954 5.4055 47.9278
v  1.8954 6.6793 46.6254
v  -2.8767 -2.7856 26.9435
v  -2.8830 -2.4137 26.9788
v  6.2882 6.3337 46.1977
v  5.8474 5.0631 47.4864
v  11.2787 -2.4137 25.4295
v  11.2663 -2.7856 25.3963
v  1.8988 -2.7856 27.4660
v  1.8988 -2.4137 27.5019
v  6.6807 -2.4137 26.9788
v  6.6743 -2.7856 26.9435
v  1.8991 24.0412 0.2760
v  1.0092 23.5329 -4.6931
v  1.8991 23.5329 -4.7905
v  2.7889 23.5329 -4.6931
v  0.1536 23.5329 -4.4048
v  0.1536 22.0275 -9.4713
v  1.8991 22.0275 -9.6622
v  3.6445 23.5329 -4.4048
v  3.6445 22.0275 -9.4713
v  -0.6350 23.5329 -3.9366
v  -1.5248 22.0275 -8.9057
v  -0.6350 19.5828 -13.8748
v  1.8991 19.5828 -14.1520
v  4.4331 23.5329 -3.9366
v  5.3229 22.0275 -8.9057
v  4.4331 19.5828 -13.8748
v  -1.3262 23.5329 -3.3065
v  -3.0717 22.0275 -7.9873
v  -3.0717 19.5828 -13.0538
v  -1.3262 16.2928 -17.7346
v  1.8991 16.2928 -18.0874
v  5.1243 23.5329 -3.3065
v  6.8698 22.0275 -7.9873
v  6.8698 19.5828 -13.0538
v  5.1243 16.2928 -17.7346
v  -1.8934 23.5329 -2.5388
v  -4.4275 22.0275 -6.7514
v  -5.3173 19.5828 -11.7205
v  -4.4275 16.2928 -16.6896
v  -1.8934 12.2840 -20.9022
v  1.8991 12.2840 -21.3171
v  5.6915 23.5329 -2.5388
v  8.2256 22.0275 -6.7514
v  9.1154 19.5828 -11.7205
v  8.2255 16.2928 -16.6896
v  5.6915 12.2840 -20.9022
v  -2.3149 23.5329 -1.6629
v  -5.5401 22.0275 -5.2454
v  -7.2856 19.5828 -9.9262
v  -7.2856 16.2928 -14.9926
v  -5.5401 12.2840 -19.6734
v  -2.3149 7.7103 -23.2559
v  1.8991 7.7103 -23.7169
v  6.1130 23.5329 -1.6629
v  9.3383 22.0275 -5.2454
v  11.0837 19.5828 -9.9262
v  11.0837 16.2928 -14.9926
v  9.3382 12.2840 -19.6734
v  6.1130 7.7103 -23.2559
v  -2.5745 23.5329 -0.7124
v  -6.3669 22.0275 -3.5272
v  -8.9010 19.5828 -7.7398
v  -9.7908 16.2928 -12.7089
v  -8.9010 12.2840 -17.6780
v  -6.3669 7.7103 -21.8906
v  -2.5745 2.7476 -24.7053
v  1.8991 2.7476 -25.1948
v  6.3726 23.5329 -0.7124
v  10.1651 22.0275 -3.5272
v  12.6991 19.5828 -7.7398
v  13.5889 16.2928 -12.7089
v  12.6991 12.2840 -17.6780
v  10.1650 7.7103 -21.8906
v  6.3725 2.7476 -24.7054
v  -2.6621 23.5329 0.2760
v  -6.8761 22.0275 -1.6629
v  -10.1013 19.5828 -5.2454
v  -11.8468 16.2928 -9.9262
v  -11.8468 12.2840 -14.9926
v  -10.1013 7.7103 -19.6734
v  -6.8761 2.7476 -23.2559
v  -2.6621 -2.4134 -25.1948
v  1.8991 -2.4134 -25.6938
v  6.4602 23.5329 0.2760
v  10.6742 22.0275 -1.6629
v  13.8994 19.5828 -5.2454
v  15.6449 16.2928 -9.9262
v  15.6449 12.2840 -14.9926
v  13.8994 7.7103 -19.6734
v  10.6742 2.7476 -23.2559
v  6.4602 -2.4134 -25.1948
v  -2.5745 23.5329 1.2644
v  -7.0480 22.0275 0.2760
v  -10.8405 19.5828 -2.5388
v  -13.3745 16.2928 -6.7514
v  -14.2644 12.2840 -11.7205
v  -13.3745 7.7103 -16.6896
v  -10.8405 2.7476 -20.9022
v  -7.0480 -2.4134 -23.7169
v  1.8991 -2.7856 -25.6578
v  -2.6558 -2.7856 -25.1595
v  6.3726 23.5329 1.2644
v  10.8461 22.0275 0.2760
v  14.6386 19.5828 -2.5388
v  17.1726 16.2928 -6.7514
v  18.0625 12.2840 -11.7205
v  17.1726 7.7103 -16.6896
v  14.6385 2.7476 -20.9022
v  10.8461 -2.4134 -23.7169
v  6.4539 -2.7856 -25.1595
v  -2.3149 23.5329 2.2148
v  -6.8761 22.0275 2.2148
v  -11.0901 19.5828 0.2760
v  -14.3153 16.2928 -3.3065
v  -16.0608 12.2840 -7.9873
v  -16.0608 7.7103 -13.0538
v  -14.3153 2.7476 -17.7346
v  -11.0901 -2.4134 -21.3171
v  -7.0356 -2.7856 -23.6837
v  6.1130 23.5329 2.2148
v  10.6742 22.0275 2.2148
v  14.8882 19.5828 0.2760
v  18.1134 16.2928 -3.3066
v  19.8589 12.2840 -7.9874
v  19.8589 7.7103 -13.0538
v  18.1134 2.7476 -17.7346
v  14.8881 -2.4134 -21.3171
v  10.8337 -2.7856 -23.6837
v  -1.8934 23.5329 3.0907
v  -6.3669 22.0275 4.0792
v  -10.8405 19.5828 3.0907
v  -14.6329 16.2928 0.2760
v  -17.1670 12.2840 -3.9366
v  -18.0568 7.7103 -8.9057
v  -17.1670 2.7476 -13.8748
v  -14.6329 -2.4134 -18.0874
v  -11.0721 -2.7856 -21.2871
v  5.6915 23.5329 3.0907
v  10.1651 22.0275 4.0791
v  14.6386 19.5828 3.0907
v  18.4311 16.2928 0.2759
v  20.9651 12.2840 -3.9367
v  21.8549 7.7103 -8.9057
v  20.9651 2.7476 -13.8748
v  18.4310 -2.4134 -18.0874
v  14.8701 -2.7856 -21.2872
v  -1.3262 23.5329 3.8585
v  -5.5401 22.0275 5.7973
v  -10.1013 19.5828 5.7973
v  -14.3153 16.2928 3.8585
v  -17.5405 12.2840 0.2760
v  -19.2860 7.7103 -4.4048
v  -19.2860 2.7476 -9.4712
v  -17.5405 -2.4134 -14.1520
v  -14.6100 -2.7856 -18.0619
v  5.1243 23.5329 3.8585
v  9.3383 22.0275 5.7973
v  13.8994 19.5828 5.7973
v  18.1134 16.2928 3.8585
v  21.3386 12.2840 0.2759
v  23.0841 7.7103 -4.4048
v  23.0841 2.7476 -9.4713
v  21.3386 -2.4134 -14.1521
v  18.4081 -2.7856 -18.0620
v  -0.6350 23.5329 4.4886
v  -4.4275 22.0275 7.3033
v  -8.9010 19.5828 8.2918
v  -13.3745 16.2928 7.3033
v  -17.1670 12.2840 4.4886
v  -19.7010 7.7103 0.2760
v  -20.5909 2.7476 -4.6931
v  -19.7010 -2.4134 -9.6622
v  -17.5136 -2.7856 -14.1320
v  4.4331 23.5329 4.4886
v  8.2256 22.0275 7.3033
v  12.6991 19.5828 8.2917
v  17.1726 16.2928 7.3033
v  20.9651 12.2840 4.4885
v  23.4992 7.7103 0.2759
v  24.3890 2.7476 -4.6932
v  23.4991 -2.4134 -9.6623
v  21.3117 -2.7856 -14.1321
v  0.1536 23.5329 4.9568
v  -3.0717 22.0275 8.5393
v  -7.2856 19.5828 10.4781
v  -11.8468 16.2928 10.4781
v  -16.0608 12.2840 8.5393
v  -19.2860 7.7103 4.9568
v  -21.0315 2.7476 0.2760
v  -21.0315 -2.4134 -4.7905
v  -19.6711 -2.7856 -9.6484
v  3.6445 23.5329 4.9568
v  6.8698 22.0275 8.5393
v  11.0838 19.5828 10.4781
v  15.6449 16.2928 10.4781
v  19.8589 12.2840 8.5392
v  23.0841 7.7103 4.9567
v  24.8296 2.7476 0.2759
v  24.8296 -2.4134 -4.7905
v  23.4692 -2.7856 -9.6485
v  1.0092 23.5329 5.2451
v  -1.5248 22.0275 9.4577
v  -5.3173 19.5828 12.2724
v  -9.7908 16.2928 13.2608
v  -14.2644 12.2840 12.2724
v  -18.0568 7.7103 9.4577
v  -20.5909 2.7476 5.2451
v  -21.4807 -2.4134 0.2760
v  -20.9997 -2.7856 -4.7834
v  2.7889 23.5329 5.2451
v  5.3230 22.0275 9.4577
v  9.1154 19.5828 12.2724
v  13.5890 16.2928 13.2608
v  18.0625 12.2840 12.2724
v  21.8550 7.7103 9.4576
v  24.3890 2.7476 5.2450
v  25.2788 -2.4134 0.2759
v  24.7978 -2.7856 -4.7835
v  1.8991 23.5329 5.3424
v  0.1536 22.0275 10.0232
v  -3.0717 19.5828 13.6057
v  -7.2856 16.2928 15.5446
v  -11.8468 12.2840 15.5446
v  -16.0608 7.7103 13.6057
v  -19.2860 2.7476 10.0232
v  -21.0315 -2.4134 5.3424
v  -21.4483 -2.7856 0.2760
v  3.6446 22.0275 10.0232
v  6.8698 19.5828 13.6057
v  11.0838 16.2928 15.5445
v  15.6449 12.2840 15.5445
v  19.8589 7.7103 13.6057
v  23.0841 2.7476 10.0232
v  24.8296 -2.4134 5.3424
v  25.2464 -2.7856 0.2759
v  1.8991 22.0275 10.2142
v  -0.6350 19.5828 14.4268
v  -4.4275 16.2928 17.2415
v  -8.9010 12.2840 18.2299
v  -13.3745 7.7103 17.2415
v  -17.1670 2.7476 14.4268
v  -19.7010 -2.4134 10.2142
v  -20.9997 -2.7856 5.3354
v  4.4331 19.5828 14.4268
v  8.2256 16.2928 17.2415
v  12.6991 12.2840 18.2299
v  17.1727 7.7103 17.2415
v  20.9651 2.7476 14.4267
v  23.4992 -2.4134 10.2141
v  24.7978 -2.7856 5.3354
v  1.8991 19.5828 14.7040
v  -1.3262 16.2928 18.2865
v  -5.5401 12.2840 20.2253
v  -10.1013 7.7103 20.2254
v  -14.3153 2.7476 18.2865
v  -17.5405 -2.4134 14.7040
v  -19.6711 -2.7856 10.2004
v  5.1243 16.2928 18.2865
v  9.3383 12.2840 20.2253
v  13.8995 7.7103 20.2253
v  18.1134 2.7476 18.2865
v  21.3387 -2.4134 14.7040
v  23.4692 -2.7856 10.2004
v  1.8991 16.2928 18.6393
v  -1.8934 12.2840 21.4541
v  -6.3669 7.7103 22.4425
v  -10.8405 2.7476 21.4541
v  -14.6329 -2.4134 18.6394
v  -17.5136 -2.7856 14.6840
v  5.6916 12.2840 21.4541
v  10.1651 7.7103 22.4425
v  14.6386 2.7476 21.4541
v  18.4311 -2.4134 18.6393
v  21.3117 -2.7856 14.6840
v  1.8991 12.2840 21.8690
v  -2.3149 7.7103 23.8079
v  -6.8761 2.7476 23.8079
v  -11.0900 -2.4134 21.8690
v  -14.6100 -2.7856 18.6139
v  6.1131 7.7103 23.8079
v  10.6742 2.7476 23.8078
v  14.8882 -2.4134 21.8690
v  18.4082 -2.7856 18.6139
v  1.8991 7.7103 24.2689
v  -2.5745 2.7476 25.2573
v  -7.0480 -2.4134 24.2689
v  -11.0720 -2.7856 21.8391
v  6.3726 2.7476 25.2573
v  10.8461 -2.4134 24.2689
v  14.8702 -2.7856 21.8391
v  1.8991 2.7476 25.7467
v  -2.6621 -2.4134 25.7467
v  -7.0356 -2.7856 24.2356
v  6.4603 -2.4134 25.7467
v  10.8337 -2.7856 24.2356
v  1.8991 -2.4134 26.2457
v  -2.6558 -2.7856 25.7114
v  6.4539 -2.7856 25.7114
v  1.8991 -2.7856 26.2097
v  1.9203 25.7819 0.1475
v  3.0946 25.7819 0.1475
v  2.9373 25.7819 -0.4396
v  2.5074 25.7819 -0.8695
v  1.9203 25.7819 -1.0268
v  1.3332 25.7819 -0.8695
v  0.9034 25.7819 -0.4396
v  0.7460 25.7819 0.1475
v  0.9034 25.7819 0.7346
v  1.3332 25.7819 1.1644
v  1.9203 25.7819 1.3217
v  2.5074 25.7819 1.1644
v  2.9373 25.7819 0.7346
v  3.3856 25.4908 0.1475
v  3.1893 25.4908 -0.5852
v  2.6530 25.4908 -1.1215
v  1.9203 25.4908 -1.3179
v  1.1876 25.4908 -1.1215
v  0.6513 25.4908 -0.5852
v  0.4550 25.4908 0.1475
v  0.6513 25.4908 0.8802
v  1.1876 25.4908 1.4165
v  1.9203 25.4908 1.6128
v  2.6530 25.4908 1.4165
v  3.1893 25.4908 0.8802
v  3.3856 25.0404 0.1475
v  3.1893 25.0404 -0.5852
v  2.6530 25.0404 -1.1215
v  1.9203 25.0404 -1.3179
v  1.1876 25.0404 -1.1215
v  0.6513 25.0404 -0.5852
v  0.4550 25.0404 0.1475
v  0.6513 25.0404 0.8802
v  1.1876 25.0404 1.4165
v  1.9203 25.0404 1.6128
v  2.6530 25.0404 1.4165
v  3.1893 25.0404 0.8802
v  3.0946 24.7493 0.1475
v  2.9373 24.7493 -0.4396
v  2.5074 24.7493 -0.8695
v  1.9203 24.7493 -1.0268
v  1.3332 24.7493 -0.8695
v  0.9034 24.7493 -0.4396
v  0.7460 24.7493 0.1475
v  0.9034 24.7493 0.7346
v  1.3332 24.7493 1.1644
v  1.9203 24.7493 1.3217
v  2.5074 24.7493 1.1644
v  2.9373 24.7493 0.7346
v  1.9203 24.7493 0.1475
# 650 vertices

vn -0.0000 1.0000 0.0000
vn -0.0000 0.9704 -0.2415
vn -0.0471 0.9704 -0.2369
vn -0.0924 0.9704 -0.2231
vn 0.0471 0.9704 -0.2369
vn -0.0000 0.8906 -0.4547
vn -0.0887 0.8906 -0.4460
vn -0.1342 0.9704 -0.2008
vn -0.1740 0.8906 -0.4201
vn 0.0924 0.9704 -0.2231
vn 0.0887 0.8906 -0.4460
vn -0.0000 0.7734 -0.6339
vn -0.1237 0.7734 -0.6217
vn -0.1708 0.9704 -0.1708
vn -0.2526 0.8906 -0.3781
vn -0.2426 0.7734 -0.5856
vn 0.1342 0.9704 -0.2008
vn 0.1740 0.8906 -0.4201
vn 0.1237 0.7734 -0.6217
vn -0.0000 0.6327 -0.7744
vn -0.1511 0.6327 -0.7595
vn -0.2008 0.9704 -0.1342
vn -0.3215 0.8906 -0.3215
vn -0.3522 0.7734 -0.5270
vn -0.2963 0.6327 -0.7154
vn 0.1708 0.9704 -0.1708
vn 0.2526 0.8906 -0.3781
vn 0.2426 0.7734 -0.5856
vn 0.1511 0.6327 -0.7595
vn -0.0000 0.4796 -0.8775
vn -0.1712 0.4796 -0.8606
vn -0.2231 0.9704 -0.0924
vn -0.3781 0.8906 -0.2526
vn -0.4482 0.7734 -0.4482
vn -0.4302 0.6327 -0.6439
vn -0.3358 0.4796 -0.8107
vn 0.2008 0.9704 -0.1342
vn 0.3215 0.8906 -0.3215
vn 0.3522 0.7734 -0.5270
vn 0.2963 0.6327 -0.7154
vn 0.1712 0.4796 -0.8606
vn -0.0000 0.3211 -0.9471
vn -0.1848 0.3211 -0.9289
vn -0.2369 0.9704 -0.0471
vn -0.4201 0.8906 -0.1740
vn -0.5270 0.7734 -0.3522
vn -0.5476 0.6327 -0.5476
vn -0.4875 0.4796 -0.7296
vn -0.3624 0.3211 -0.8750
vn 0.2231 0.9704 -0.0924
vn 0.3781 0.8906 -0.2526
vn 0.4482 0.7734 -0.4482
vn 0.4302 0.6327 -0.6439
vn 0.3358 0.4796 -0.8107
vn 0.1848 0.3211 -0.9289
vn -0.0000 0.1607 -0.9870
vn -0.1926 0.1607 -0.9680
vn -0.2415 0.9704 0.0000
vn -0.4460 0.8906 -0.0887
vn -0.5856 0.7734 -0.2426
vn -0.6439 0.6327 -0.4302
vn -0.6205 0.4796 -0.6205
vn -0.5262 0.3211 -0.7874
vn -0.3777 0.1607 -0.9119
vn 0.2369 0.9704 -0.0471
vn 0.4201 0.8906 -0.1740
vn 0.5270 0.7734 -0.3522
vn 0.5476 0.6327 -0.5476
vn 0.4875 0.4796 -0.7296
vn 0.3624 0.3211 -0.8750
vn 0.1926 0.1607 -0.9680
vn -0.0000 -0.0000 -1.0000
vn -0.1951 -0.0000 -0.9808
vn -0.2369 0.9704 0.0471
vn -0.4547 0.8906 0.0000
vn -0.6217 0.7734 -0.1237
vn -0.7154 0.6327 -0.2963
vn -0.7296 0.4796 -0.4875
vn -0.6697 0.3211 -0.6697
vn -0.5483 0.1607 -0.8207
vn -0.3827 -0.0000 -0.9239
vn 0.2415 0.9704 -0.0000
vn 0.4460 0.8906 -0.0887
vn 0.5856 0.7734 -0.2426
vn 0.6439 0.6327 -0.4302
vn 0.6205 0.4796 -0.6205
vn 0.5262 0.3211 -0.7874
vn 0.3777 0.1607 -0.9119
vn 0.1951 -0.0000 -0.9808
vn -0.1365 -0.7145 -0.6862
vn -0.0000 -0.7145 -0.6997
vn -0.2231 0.9704 0.0924
vn -0.4460 0.8906 0.0887
vn -0.6339 0.7734 0.0000
vn -0.7595 0.6327 -0.1511
vn -0.8107 0.4796 -0.3358
vn -0.7874 0.3211 -0.5262
vn -0.6979 0.1607 -0.6979
vn -0.5556 -0.0000 -0.8315
vn -0.2678 -0.7145 -0.6464
vn 0.2369 0.9704 0.0471
vn 0.4547 0.8906 -0.0000
vn 0.6217 0.7734 -0.1237
vn 0.7154 0.6327 -0.2963
vn 0.7296 0.4796 -0.4875
vn 0.6697 0.3211 -0.6697
vn 0.5483 0.1607 -0.8207
vn 0.3827 0.0000 -0.9239
vn 0.1365 -0.7145 -0.6862
vn -0.2008 0.9704 0.1342
vn -0.4201 0.8906 0.1740
vn -0.6217 0.7734 0.1237
vn -0.7744 0.6327 0.0000
vn -0.8606 0.4796 -0.1712
vn -0.8750 0.3211 -0.3624
vn -0.8207 0.1607 -0.5483
vn -0.7071 0.0000 -0.7071
vn -0.3887 -0.7145 -0.5818
vn 0.2231 0.9704 0.0924
vn 0.4460 0.8906 0.0887
vn 0.6339 0.7734 -0.0000
vn 0.7595 0.6327 -0.1511
vn 0.8107 0.4796 -0.3358
vn 0.7874 0.3211 -0.5262
vn 0.6979 0.1607 -0.6979
vn 0.5556 0.0000 -0.8315
vn 0.2678 -0.7145 -0.6464
vn -0.1708 0.9704 0.1708
vn -0.3781 0.8906 0.2526
vn -0.5856 0.7734 0.2426
vn -0.7595 0.6327 0.1511
vn -0.8775 0.4796 0.0000
vn -0.9289 0.3211 -0.1848
vn -0.9119 0.1607 -0.3777
vn -0.8315 0.0000 -0.5556
vn -0.4947 -0.7145 -0.4947
vn 0.2008 0.9704 0.1342
vn 0.4201 0.8906 0.1740
vn 0.6217 0.7734 0.1237
vn 0.7744 0.6327 -0.0000
vn 0.8606 0.4796 -0.1712
vn 0.8750 0.3211 -0.3624
vn 0.8207 0.1607 -0.5483
vn 0.7071 0.0000 -0.7071
vn 0.3887 -0.7145 -0.5818
vn -0.1342 0.9704 0.2008
vn -0.3215 0.8906 0.3215
vn -0.5270 0.7734 0.3522
vn -0.7154 0.6327 0.2963
vn -0.8606 0.4796 0.1712
vn -0.9471 0.3211 0.0000
vn -0.9680 0.1607 -0.1926
vn -0.9239 0.0000 -0.3827
vn -0.5818 -0.7145 -0.3887
vn 0.1708 0.9704 0.1708
vn 0.3781 0.8906 0.2526
vn 0.5856 0.7734 0.2426
vn 0.7595 0.6327 0.1511
vn 0.8775 0.4796 -0.0000
vn 0.9289 0.3211 -0.1848
vn 0.9119 0.1607 -0.3777
vn 0.8315 0.0000 -0.5556
vn 0.4947 -0.7145 -0.4947
vn -0.0924 0.9704 0.2231
vn -0.2526 0.8906 0.3781
vn -0.4482 0.7734 0.4482
vn -0.6439 0.6327 0.4302
vn -0.8107 0.4796 0.3358
vn -0.9289 0.3211 0.1848
vn -0.9870 0.1607 0.0000
vn -0.9808 -0.0000 -0.1951
vn -0.6464 -0.7145 -0.2678
vn 0.1342 0.9704 0.2008
vn 0.3215 0.8906 0.3215
vn 0.5270 0.7734 0.3522
vn 0.7154 0.6327 0.2963
vn 0.8606 0.4796 0.1712
vn 0.9471 0.3211 -0.0000
vn 0.9680 0.1607 -0.1926
vn 0.9239 -0.0000 -0.3827
vn 0.5818 -0.7145 -0.3887
vn -0.0471 0.9704 0.2369
vn -0.1740 0.8906 0.4201
vn -0.3522 0.7734 0.5270
vn -0.5476 0.6327 0.5476
vn -0.7296 0.4796 0.4875
vn -0.8750 0.3211 0.3624
vn -0.9680 0.1607 0.1926
vn -1.0000 0.0000 0.0000
vn -0.6862 -0.7145 -0.1365
vn 0.0924 0.9704 0.2231
vn 0.2526 0.8906 0.3781
vn 0.4482 0.7734 0.4482
vn 0.6439 0.6327 0.4302
vn 0.8107 0.4796 0.3358
vn 0.9289 0.3211 0.1848
vn 0.9870 0.1607 -0.0000
vn 0.9808 -0.0000 -0.1951
vn 0.6464 -0.7145 -0.2678
vn 0.0000 0.9704 0.2415
vn -0.0887 0.8906 0.4460
vn -0.2426 0.7734 0.5856
vn -0.4302 0.6327 0.6439
vn -0.6205 0.4796 0.6205
vn -0.8014 0.2666 0.5355
vn -0.8658 0.1794 0.4672
vn -0.9808 -0.0000 0.1951
vn -0.6997 -0.7145 0.0000
vn 0.0471 0.9704 0.2369
vn 0.1740 0.8906 0.4201
vn 0.3522 0.7734 0.5270
vn 0.5476 0.6327 0.5476
vn 0.7296 0.4796 0.4875
vn 0.8750 0.3211 0.3624
vn 0.9680 0.1607 0.1926
vn 1.0000 0.0000 -0.0000
vn 0.6862 -0.7145 -0.1365
vn 0.0000 0.8906 0.4547
vn -0.1237 0.7734 0.6217
vn -0.2963 0.6327 0.7154
vn -0.4875 0.4796 0.7296
vn -0.6796 0.2795 0.6782
vn -0.7391 0.4194 0.5270
vn -0.9239 0.0000 0.3827
vn -0.6862 -0.7145 0.1365
vn 0.0887 0.8906 0.4460
vn 0.2426 0.7734 0.5856
vn 0.4302 0.6327 0.6439
vn 0.6205 0.4796 0.6205
vn 0.7993 0.2747 0.5344
vn 0.8748 0.1792 0.4500
vn 0.9808 0.0000 0.1951
vn 0.6997 -0.7145 -0.0000
vn 0.0000 0.7734 0.6339
vn -0.1511 0.6327 0.7595
vn -0.3358 0.4796 0.8107
vn -0.5274 0.3248 0.7851
vn -0.7986 0.4548 0.3941
vn -0.8871 0.1375 0.4406
vn -0.6464 -0.7145 0.2678
vn 0.1237 0.7734 0.6217
vn 0.2963 0.6327 0.7154
vn 0.4875 0.4796 0.7296
vn 0.6679 0.3213 0.6713
vn 0.8470 0.2803 0.4517
vn 0.9239 0.0000 0.3827
vn 0.6862 -0.7145 0.1365
vn 0.0000 0.6327 0.7744
vn -0.1712 0.4796 0.8606
vn -0.3290 0.4795 0.8136
vn -0.7263 0.5458 0.4179
vn -0.8880 -0.2941 0.3535
vn 0.1966 -0.8807 0.4309
vn 0.2031 -0.6395 0.7415
vn -0.7432 0.3943 0.5405
vn -0.5818 -0.7145 0.3887
vn 0.1511 0.6327 0.7595
vn 0.3358 0.4796 0.8107
vn 0.5167 0.3598 0.7769
vn 0.8198 0.4830 0.3075
vn 0.9026 0.0070 0.4305
vn 0.6464 -0.7145 0.2678
vn 0.0000 0.4796 0.8775
vn -0.1185 0.7944 0.5958
vn -0.5969 0.7497 0.2858
vn 0.0101 -0.5650 0.8250
vn -0.6786 0.5090 0.5296
vn -0.4947 -0.7145 0.4947
vn -0.4772 -0.7399 0.4742
vn 0.1712 0.4796 0.8606
vn 0.3237 0.5145 0.7941
vn 0.7068 0.5814 0.4031
vn 0.7512 0.4301 0.5008
vn -0.1089 -0.6244 0.7735
vn -0.2236 -0.8858 0.4066
vn 0.8902 -0.2876 0.3533
vn 0.5818 -0.7145 0.3887
vn -0.0009 0.9332 0.3594
vn -0.3090 0.9442 0.1138
vn -0.0399 -0.4478 0.8932
vn -0.5055 0.6714 0.5419
vn -0.3887 -0.7145 0.5818
vn -0.4242 -0.6591 0.6210
vn 0.1165 0.7875 0.6052
vn 0.5755 0.7540 0.3168
vn 0.6735 0.5704 0.4702
vn 0.0721 -0.5150 0.8542
vn 0.4758 -0.7415 0.4731
vn 0.4947 -0.7145 0.4947
vn -0.0094 0.9953 -0.0959
vn -0.1670 -0.1519 0.9742
vn -0.2446 0.8625 0.4430
vn -0.2678 -0.7145 0.6464
vn -0.3080 -0.6154 0.7255
vn 0.2957 0.9533 0.0619
vn 0.5163 0.7136 0.4735
vn 0.1232 -0.3482 0.9293
vn 0.4227 -0.6616 0.6193
vn 0.3887 -0.7145 0.5818
vn 0.0030 -0.1640 0.9865
vn -0.0030 0.8773 0.4799
vn -0.1365 -0.7145 0.6862
vn -0.1606 -0.5923 0.7896
vn 0.2743 0.8376 0.4723
vn 0.1076 -0.1956 0.9748
vn 0.3068 -0.6181 0.7238
vn 0.2678 -0.7145 0.6464
vn 0.0000 -0.7145 0.6997
vn 0.0000 -0.5889 0.8082
vn 0.1609 -0.5916 0.7900
vn 0.1365 -0.7145 0.6862
vn 0.0000 -1.0000 0.0000
vn 0.0471 -0.9704 0.2369
vn 0.0000 -0.9704 0.2415
vn -0.0471 -0.9704 0.2369
vn 0.0924 -0.9704 0.2231
vn 0.0887 -0.8906 0.4460
vn 0.0000 -0.8906 0.4547
vn -0.0924 -0.9704 0.2231
vn -0.0887 -0.8906 0.4460
vn 0.1342 -0.9704 0.2008
vn 0.1740 -0.8906 0.4201
vn 0.1237 -0.7734 0.6217
vn 0.0000 -0.7734 0.6339
vn -0.1342 -0.9704 0.2008
vn -0.1740 -0.8906 0.4201
vn -0.1237 -0.7734 0.6217
vn 0.1708 -0.9704 0.1708
vn 0.2526 -0.8906 0.3781
vn 0.2426 -0.7734 0.5856
vn 0.1511 -0.6327 0.7595
vn 0.0000 -0.6327 0.7744
vn -0.1708 -0.9704 0.1708
vn -0.2526 -0.8906 0.3781
vn -0.2426 -0.7734 0.5856
vn -0.1511 -0.6327 0.7595
vn 0.2008 -0.9704 0.1342
vn 0.3215 -0.8906 0.3215
vn 0.3522 -0.7734 0.5270
vn 0.2963 -0.6327 0.7154
vn 0.1712 -0.4796 0.8606
vn 0.0000 -0.4796 0.8775
vn -0.2008 -0.9704 0.1342
vn -0.3215 -0.8906 0.3215
vn -0.3522 -0.7734 0.5270
vn -0.2963 -0.6327 0.7154
vn -0.1712 -0.4796 0.8606
vn 0.2231 -0.9704 0.0924
vn 0.3781 -0.8906 0.2526
vn 0.4482 -0.7734 0.4482
vn 0.4302 -0.6327 0.6439
vn 0.3358 -0.4796 0.8107
vn 0.1848 -0.3211 0.9289
vn 0.0000 -0.3211 0.9471
vn -0.2231 -0.9704 0.0924
vn -0.3781 -0.8906 0.2526
vn -0.4482 -0.7734 0.4482
vn -0.4302 -0.6327 0.6439
vn -0.3358 -0.4796 0.8107
vn -0.1848 -0.3211 0.9289
vn 0.2369 -0.9704 0.0471
vn 0.4201 -0.8906 0.1740
vn 0.5270 -0.7734 0.3522
vn 0.5476 -0.6327 0.5476
vn 0.4875 -0.4796 0.7296
vn 0.3624 -0.3211 0.8750
vn 0.1926 -0.1607 0.9680
vn 0.0000 -0.1607 0.9870
vn -0.2369 -0.9704 0.0471
vn -0.4201 -0.8906 0.1740
vn -0.5270 -0.7734 0.3522
vn -0.5476 -0.6327 0.5476
vn -0.4875 -0.4796 0.7296
vn -0.3624 -0.3211 0.8750
vn -0.1926 -0.1607 0.9680
vn 0.2415 -0.9704 -0.0000
vn 0.4460 -0.8906 0.0887
vn 0.5856 -0.7734 0.2426
vn 0.6439 -0.6327 0.4302
vn 0.6205 -0.4796 0.6205
vn 0.5262 -0.3211 0.7874
vn 0.3777 -0.1607 0.9119
vn 0.1951 -0.0000 0.9808
vn 0.0000 -0.0000 1.0000
vn -0.2415 -0.9704 0.0000
vn -0.4460 -0.8906 0.0887
vn -0.5856 -0.7734 0.2426
vn -0.6439 -0.6327 0.4302
vn -0.6205 -0.4796 0.6205
vn -0.5262 -0.3211 0.7874
vn -0.3777 -0.1607 0.9119
vn -0.1951 0.0000 0.9808
vn 0.2369 -0.9704 -0.0471
vn 0.4547 -0.8906 -0.0000
vn 0.6217 -0.7734 0.1237
vn 0.7154 -0.6327 0.2963
vn 0.7296 -0.4796 0.4875
vn 0.6697 -0.3211 0.6697
vn 0.5483 -0.1607 0.8207
vn 0.3827 -0.0000 0.9239
vn 0.0000 0.7145 0.6997
vn 0.1365 0.7145 0.6862
vn -0.2369 -0.9704 -0.0471
vn -0.4547 -0.8906 0.0000
vn -0.6217 -0.7734 0.1237
vn -0.7154 -0.6327 0.2963
vn -0.7296 -0.4796 0.4875
vn -0.6697 -0.3211 0.6697
vn -0.5483 -0.1607 0.8207
vn -0.3827 -0.0000 0.9239
vn -0.1365 0.7145 0.6862
vn 0.2231 -0.9704 -0.0924
vn 0.4460 -0.8906 -0.0887
vn 0.6339 -0.7734 -0.0000
vn 0.7595 -0.6327 0.1511
vn 0.8107 -0.4796 0.3358
vn 0.7874 -0.3211 0.5262
vn 0.6979 -0.1607 0.6979
vn 0.5556 -0.0000 0.8315
vn 0.2678 0.7145 0.6464
vn -0.2231 -0.9704 -0.0924
vn -0.4460 -0.8906 -0.0887
vn -0.6339 -0.7734 0.0000
vn -0.7595 -0.6327 0.1511
vn -0.8107 -0.4796 0.3358
vn -0.7874 -0.3211 0.5262
vn -0.6979 -0.1607 0.6979
vn -0.5556 0.0000 0.8315
vn -0.2678 0.7145 0.6464
vn 0.2008 -0.9704 -0.1342
vn 0.4201 -0.8906 -0.1740
vn 0.6217 -0.7734 -0.1237
vn 0.7744 -0.6327 -0.0000
vn 0.8606 -0.4796 0.1712
vn 0.8750 -0.3211 0.3624
vn 0.8207 -0.1607 0.5483
vn 0.7071 0.0000 0.7071
vn 0.3887 0.7145 0.5818
vn -0.2008 -0.9704 -0.1342
vn -0.4201 -0.8906 -0.1740
vn -0.6217 -0.7734 -0.1237
vn -0.7744 -0.6327 0.0000
vn -0.8606 -0.4796 0.1712
vn -0.8750 -0.3211 0.3624
vn -0.8207 -0.1607 0.5483
vn -0.7071 0.0000 0.7071
vn -0.3887 0.7145 0.5818
vn 0.1708 -0.9704 -0.1708
vn 0.3781 -0.8906 -0.2526
vn 0.5856 -0.7734 -0.2426
vn 0.7595 -0.6327 -0.1511
vn 0.8775 -0.4796 -0.0000
vn 0.9289 -0.3211 0.1848
vn 0.9119 -0.1607 0.3777
vn 0.8315 -0.0000 0.5556
vn 0.4947 0.7145 0.4947
vn -0.1708 -0.9704 -0.1708
vn -0.3781 -0.8906 -0.2526
vn -0.5856 -0.7734 -0.2426
vn -0.7595 -0.6327 -0.1511
vn -0.8775 -0.4796 0.0000
vn -0.9289 -0.3211 0.1848
vn -0.9119 -0.1607 0.3777
vn -0.8315 0.0000 0.5556
vn -0.4947 0.7145 0.4947
vn 0.1342 -0.9704 -0.2008
vn 0.3215 -0.8906 -0.3215
vn 0.5270 -0.7734 -0.3522
vn 0.7154 -0.6327 -0.2963
vn 0.8606 -0.4796 -0.1712
vn 0.9471 -0.3211 -0.0000
vn 0.9680 -0.1607 0.1926
vn 0.9239 -0.0000 0.3827
vn 0.5818 0.7145 0.3887
vn -0.1342 -0.9704 -0.2008
vn -0.3215 -0.8906 -0.3215
vn -0.5270 -0.7734 -0.3522
vn -0.7154 -0.6327 -0.2963
vn -0.8606 -0.4796 -0.1712
vn -0.9471 -0.3211 0.0000
vn -0.9680 -0.1607 0.1926
vn -0.5818 0.7145 0.3887
vn 0.0924 -0.9704 -0.2231
vn 0.2526 -0.8906 -0.3781
vn 0.4482 -0.7734 -0.4482
vn 0.6439 -0.6327 -0.4302
vn 0.8107 -0.4796 -0.3358
vn 0.9289 -0.3211 -0.1848
vn 0.9870 -0.1607 -0.0000
vn 0.9808 -0.0000 0.1951
vn 0.6464 0.7145 0.2678
vn -0.0924 -0.9704 -0.2231
vn -0.2526 -0.8906 -0.3781
vn -0.4482 -0.7734 -0.4482
vn -0.6439 -0.6327 -0.4302
vn -0.8107 -0.4796 -0.3358
vn -0.9289 -0.3211 -0.1848
vn -0.9870 -0.1607 0.0000
vn -0.6464 0.7145 0.2678
vn 0.0471 -0.9704 -0.2369
vn 0.1740 -0.8906 -0.4201
vn 0.3522 -0.7734 -0.5270
vn 0.5476 -0.6327 -0.5476
vn 0.7296 -0.4796 -0.4875
vn 0.8750 -0.3211 -0.3624
vn 0.9680 -0.1607 -0.1926
vn 1.0000 -0.0000 -0.0000
vn 0.6862 0.7145 0.1365
vn -0.0471 -0.9704 -0.2369
vn -0.1740 -0.8906 -0.4201
vn -0.3522 -0.7734 -0.5270
vn -0.5476 -0.6327 -0.5476
vn -0.7296 -0.4796 -0.4875
vn -0.8750 -0.3211 -0.3624
vn -0.9680 -0.1607 -0.1926
vn -0.6862 0.7145 0.1365
vn -0.0000 -0.9704 -0.2415
vn 0.0887 -0.8906 -0.4460
vn 0.2426 -0.7734 -0.5856
vn 0.4302 -0.6327 -0.6439
vn 0.6205 -0.4796 -0.6205
vn 0.7874 -0.3211 -0.5262
vn 0.9119 -0.1607 -0.3777
vn 0.7124 -0.7017 -0.0000
vn -0.0887 -0.8906 -0.4460
vn -0.2426 -0.7734 -0.5856
vn -0.4302 -0.6327 -0.6439
vn -0.6205 -0.4796 -0.6205
vn -0.7874 -0.3211 -0.5262
vn -0.9119 -0.1607 -0.3777
vn -0.6997 0.7145 0.0000
vn -0.0000 -0.8906 -0.4547
vn 0.1237 -0.7734 -0.6217
vn 0.2963 -0.6327 -0.7154
vn 0.4875 -0.4796 -0.7296
vn 0.6697 -0.3211 -0.6697
vn 0.8207 -0.1607 -0.5483
vn 0.6862 0.7145 -0.1365
vn -0.1237 -0.7734 -0.6217
vn -0.2963 -0.6327 -0.7154
vn -0.4875 -0.4796 -0.7296
vn -0.6697 -0.3211 -0.6697
vn -0.8207 -0.1607 -0.5483
vn -0.6862 0.7145 -0.1365
vn -0.0000 -0.7734 -0.6339
vn 0.1511 -0.6327 -0.7595
vn 0.3358 -0.4796 -0.8107
vn 0.5262 -0.3211 -0.7874
vn 0.6979 -0.1607 -0.6979
vn 0.8315 -0.0000 -0.5556
vn 0.6464 0.7145 -0.2678
vn -0.1511 -0.6327 -0.7595
vn -0.3358 -0.4796 -0.8107
vn -0.5262 -0.3211 -0.7874
vn -0.6979 -0.1607 -0.6979
vn -0.6464 0.7145 -0.2678
vn -0.0000 -0.6327 -0.7744
vn 0.1712 -0.4796 -0.8606
vn 0.3624 -0.3211 -0.8750
vn 0.5483 -0.1607 -0.8207
vn 0.7071 -0.0000 -0.7071
vn 0.5818 0.7145 -0.3887
vn -0.1712 -0.4796 -0.8606
vn -0.3624 -0.3211 -0.8750
vn -0.5483 -0.1607 -0.8207
vn -0.5818 0.7145 -0.3887
vn -0.0000 -0.4796 -0.8775
vn 0.1848 -0.3211 -0.9289
vn 0.3777 -0.1607 -0.9119
vn 0.4947 0.7145 -0.4947
vn -0.1848 -0.3211 -0.9289
vn -0.3777 -0.1607 -0.9119
vn -0.4947 0.7145 -0.4947
vn -0.0000 -0.3211 -0.9471
vn 0.1926 -0.1607 -0.9680
vn 0.3887 0.7145 -0.5818
vn -0.1926 -0.1607 -0.9680
vn -0.3827 0.0000 -0.9239
vn -0.3887 0.7145 -0.5818
vn -0.0000 -0.1607 -0.9870
vn 0.2678 0.7145 -0.6464
vn -0.2678 0.7145 -0.6464
vn 0.1365 0.7145 -0.6862
vn -0.1365 0.7145 -0.6862
vn -0.0000 0.7145 -0.6997
vn 0.0000 1.0000 -0.0000
vn 0.4579 0.8890 0.0000
vn 0.3877 0.8868 -0.2514
vn 0.2146 0.8829 -0.4177
vn 0.0000 0.8811 -0.4730
vn -0.2146 0.8829 -0.4177
vn -0.3877 0.8868 -0.2514
vn -0.4579 0.8890 -0.0000
vn -0.3877 0.8868 0.2514
vn -0.2146 0.8829 0.4177
vn -0.0000 0.8811 0.4730
vn 0.2146 0.8829 0.4177
vn 0.3877 0.8868 0.2514
vn 0.9387 0.3446 0.0000
vn 0.7967 0.3399 -0.4997
vn 0.4425 0.3305 -0.8337
vn -0.0000 0.3258 -0.9455
vn -0.4425 0.3305 -0.8337
vn -0.7967 0.3399 -0.4997
vn -0.9387 0.3446 -0.0000
vn -0.7967 0.3399 0.4997
vn -0.4425 0.3305 0.8337
vn -0.0000 0.3258 0.9454
vn 0.4425 0.3305 0.8337
vn 0.7967 0.3399 0.4997
vn 0.9387 -0.3446 0.0000
vn 0.7967 -0.3399 -0.4997
vn 0.4425 -0.3305 -0.8337
vn -0.0000 -0.3258 -0.9455
vn -0.4425 -0.3305 -0.8337
vn -0.7967 -0.3399 -0.4997
vn -0.9387 -0.3446 -0.0000
vn -0.7967 -0.3399 0.4997
vn -0.4425 -0.3305 0.8337
vn -0.0000 -0.3258 0.9454
vn 0.4425 -0.3305 0.8337
vn 0.7967 -0.3399 0.4997
vn 0.4579 -0.8890 0.0000
vn 0.3877 -0.8868 -0.2514
vn 0.2146 -0.8829 -0.4177
vn -0.0000 -0.8810 -0.4730
vn -0.2146 -0.8829 -0.4177
vn -0.3877 -0.8868 -0.2514
vn -0.4579 -0.8890 -0.0000
vn -0.3877 -0.8868 0.2514
vn -0.2146 -0.8829 0.4177
vn -0.0000 -0.8810 0.4730
vn 0.2146 -0.8829 0.4177
vn 0.3877 -0.8868 0.2514
vn 0.0000 -1.0000 -0.0000
# 635 vertex normals

vt 0.2036 0.4509 0.0000
vt 0.1745 0.4478 0.0000
vt 0.1757 0.4422 0.0000
vt 0.1779 0.4369 0.0000
vt 0.1745 0.4535 0.0000
vt 0.1466 0.4449 0.0000
vt 0.1488 0.4339 0.0000
vt 0.1811 0.4322 0.0000
vt 0.1532 0.4235 0.0000
vt 0.1756 0.4592 0.0000
vt 0.1465 0.4561 0.0000
vt 0.1208 0.4422 0.0000
vt 0.1241 0.4262 0.0000
vt 0.1852 0.4282 0.0000
vt 0.1595 0.4142 0.0000
vt 0.1304 0.4112 0.0000
vt 0.1777 0.4645 0.0000
vt 0.1486 0.4671 0.0000
vt 0.1207 0.4585 0.0000
vt 0.0982 0.4398 0.0000
vt 0.1024 0.4195 0.0000
vt 0.1900 0.4250 0.0000
vt 0.1675 0.4063 0.0000
vt 0.1396 0.3977 0.0000
vt 0.1105 0.4003 0.0000
vt 0.1809 0.4693 0.0000
vt 0.1528 0.4775 0.0000
vt 0.1238 0.4745 0.0000
vt 0.0981 0.4606 0.0000
vt 0.0797 0.4378 0.0000
vt 0.0846 0.4139 0.0000
vt 0.1953 0.4228 0.0000
vt 0.1769 0.4001 0.0000
vt 0.1512 0.3862 0.0000
vt 0.1221 0.3831 0.0000
vt 0.0941 0.3914 0.0000
vt 0.1849 0.4733 0.0000
vt 0.1590 0.4869 0.0000
vt 0.1299 0.4896 0.0000
vt 0.1020 0.4809 0.0000
vt 0.0796 0.4623 0.0000
vt 0.0660 0.4364 0.0000
vt 0.0714 0.4098 0.0000
vt 0.2009 0.4218 0.0000
vt 0.1873 0.3959 0.0000
vt 0.1648 0.3772 0.0000
vt 0.1369 0.3686 0.0000
vt 0.1078 0.3712 0.0000
vt 0.0820 0.3848 0.0000
vt 0.1896 0.4765 0.0000
vt 0.1669 0.4949 0.0000
vt 0.1389 0.5032 0.0000
vt 0.1098 0.5002 0.0000
vt 0.0842 0.4862 0.0000
vt 0.0658 0.4635 0.0000
vt 0.0575 0.4355 0.0000
vt 0.0633 0.4073 0.0000
vt 0.2066 0.4218 0.0000
vt 0.1983 0.3938 0.0000
vt 0.1799 0.3711 0.0000
vt 0.1543 0.3571 0.0000
vt 0.1252 0.3541 0.0000
vt 0.0972 0.3624 0.0000
vt 0.0745 0.3808 0.0000
vt 0.1949 0.4788 0.0000
vt 0.1762 0.5012 0.0000
vt 0.1504 0.5148 0.0000
vt 0.1213 0.5175 0.0000
vt 0.0934 0.5088 0.0000
vt 0.0709 0.4902 0.0000
vt 0.0573 0.4643 0.0000
vt 0.0546 0.4352 0.0000
vt 0.0605 0.4064 0.0000
vt 0.2122 0.4230 0.0000
vt 0.2096 0.3939 0.0000
vt 0.1960 0.3680 0.0000
vt 0.1735 0.3493 0.0000
vt 0.1456 0.3406 0.0000
vt 0.1165 0.3433 0.0000
vt 0.0906 0.3569 0.0000
vt 0.0719 0.3794 0.0000
vt 0.2005 0.4799 0.0000
vt 0.1866 0.5056 0.0000
vt 0.1639 0.5240 0.0000
vt 0.1359 0.5323 0.0000
vt 0.1068 0.5292 0.0000
vt 0.0811 0.5153 0.0000
vt 0.0627 0.4926 0.0000
vt 0.0544 0.4646 0.0000
vt 0.4642 0.7365 0.0000
vt 0.4644 0.7365 0.0000
vt 0.4642 0.7658 0.0000
vt 0.4640 0.7658 0.0000
vt 0.2175 0.4252 0.0000
vt 0.2206 0.3961 0.0000
vt 0.2123 0.3681 0.0000
vt 0.1939 0.3454 0.0000
vt 0.1682 0.3315 0.0000
vt 0.1391 0.3284 0.0000
vt 0.1111 0.3367 0.0000
vt 0.0884 0.3551 0.0000
vt 0.4587 0.7077 0.0000
vt 0.4589 0.7076 0.0000
vt 0.2062 0.4800 0.0000
vt 0.1976 0.5079 0.0000
vt 0.1789 0.5303 0.0000
vt 0.1530 0.5439 0.0000
vt 0.1239 0.5466 0.0000
vt 0.0960 0.5379 0.0000
vt 0.0736 0.5193 0.0000
vt 0.0600 0.4934 0.0000
vt 0.4583 0.7946 0.0000
vt 0.4581 0.7945 0.0000
vt 0.2223 0.4284 0.0000
vt 0.2309 0.4005 0.0000
vt 0.2283 0.3714 0.0000
vt 0.2146 0.3455 0.0000
vt 0.1922 0.3268 0.0000
vt 0.1643 0.3182 0.0000
vt 0.1352 0.3209 0.0000
vt 0.1093 0.3345 0.0000
vt 0.4476 0.6805 0.0000
vt 0.4478 0.6804 0.0000
vt 0.2119 0.4789 0.0000
vt 0.2088 0.5079 0.0000
vt 0.1949 0.5336 0.0000
vt 0.1722 0.5520 0.0000
vt 0.1442 0.5603 0.0000
vt 0.1151 0.5573 0.0000
vt 0.0894 0.5433 0.0000
vt 0.0710 0.5206 0.0000
vt 0.4469 0.8216 0.0000
vt 0.4467 0.8215 0.0000
vt 0.2263 0.4325 0.0000
vt 0.2402 0.4068 0.0000
vt 0.2433 0.3777 0.0000
vt 0.2350 0.3497 0.0000
vt 0.2166 0.3270 0.0000
vt 0.1909 0.3131 0.0000
vt 0.1619 0.3100 0.0000
vt 0.1338 0.3183 0.0000
vt 0.4315 0.6560 0.0000
vt 0.4316 0.6559 0.0000
vt 0.2172 0.4767 0.0000
vt 0.2199 0.5058 0.0000
vt 0.2112 0.5337 0.0000
vt 0.1925 0.5562 0.0000
vt 0.1666 0.5698 0.0000
vt 0.1375 0.5725 0.0000
vt 0.1096 0.5638 0.0000
vt 0.0872 0.5451 0.0000
vt 0.4304 0.8459 0.0000
vt 0.4303 0.8458 0.0000
vt 0.2294 0.4373 0.0000
vt 0.2481 0.4148 0.0000
vt 0.2568 0.3869 0.0000
vt 0.2541 0.3578 0.0000
vt 0.2405 0.3319 0.0000
vt 0.2180 0.3132 0.0000
vt 0.1901 0.3046 0.0000
vt 0.1610 0.3072 0.0000
vt 0.4109 0.6351 0.0000
vt 0.4110 0.6350 0.0000
vt 0.2220 0.4736 0.0000
vt 0.2303 0.5016 0.0000
vt 0.2272 0.5306 0.0000
vt 0.2133 0.5563 0.0000
vt 0.1906 0.5747 0.0000
vt 0.1625 0.5830 0.0000
vt 0.1335 0.5800 0.0000
vt 0.1078 0.5660 0.0000
vt 0.4095 0.8666 0.0000
vt 0.4094 0.8664 0.0000
vt 0.2316 0.4426 0.0000
vt 0.2543 0.4242 0.0000
vt 0.2682 0.3985 0.0000
vt 0.2713 0.3694 0.0000
vt 0.2630 0.3414 0.0000
vt 0.2446 0.3187 0.0000
vt 0.2189 0.3048 0.0000
vt 0.1899 0.3017 0.0000
vt 0.3866 0.6187 0.0000
vt 0.3867 0.6185 0.0000
vt 0.2260 0.4695 0.0000
vt 0.2396 0.4954 0.0000
vt 0.2423 0.5245 0.0000
vt 0.2337 0.5524 0.0000
vt 0.2150 0.5749 0.0000
vt 0.1891 0.5885 0.0000
vt 0.1600 0.5912 0.0000
vt 0.1321 0.5825 0.0000
vt 0.3850 0.8827 0.0000
vt 0.3849 0.8825 0.0000
vt 0.2327 0.4482 0.0000
vt 0.2585 0.4346 0.0000
vt 0.2772 0.4121 0.0000
vt 0.2859 0.3842 0.0000
vt 0.2832 0.3551 0.0000
vt 0.2696 0.3293 0.0000
vt 0.2471 0.3106 0.0000
vt 0.2192 0.3019 0.0000
vt 0.3596 0.6073 0.0000
vt 0.3597 0.6071 0.0000
vt 0.2293 0.4648 0.0000
vt 0.2476 0.4875 0.0000
vt 0.2559 0.5155 0.0000
vt 0.2529 0.5446 0.0000
vt 0.2389 0.5703 0.0000
vt 0.2162 0.5887 0.0000
vt 0.1882 0.5970 0.0000
vt 0.1592 0.5939 0.0000
vt 0.3578 0.8938 0.0000
vt 0.3577 0.8936 0.0000
vt 0.2326 0.4539 0.0000
vt 0.2607 0.4456 0.0000
vt 0.2834 0.4272 0.0000
vt 0.2973 0.4015 0.0000
vt 0.3004 0.3725 0.0000
vt 0.2921 0.3445 0.0000
vt 0.2737 0.3218 0.0000
vt 0.2480 0.3078 0.0000
vt 0.3309 0.6014 0.0000
vt 0.3309 0.6012 0.0000
vt 0.2315 0.4595 0.0000
vt 0.2539 0.4782 0.0000
vt 0.2676 0.5041 0.0000
vt 0.2702 0.5332 0.0000
vt 0.2616 0.5611 0.0000
vt 0.2429 0.5835 0.0000
vt 0.2170 0.5971 0.0000
vt 0.1879 0.5998 0.0000
vt 0.3290 0.8993 0.0000
vt 0.3289 0.8991 0.0000
vt 0.2606 0.4569 0.0000
vt 0.2864 0.4432 0.0000
vt 0.3051 0.4208 0.0000
vt 0.3138 0.3929 0.0000
vt 0.3111 0.3638 0.0000
vt 0.2975 0.3379 0.0000
vt 0.2750 0.3192 0.0000
vt 0.3016 0.6012 0.0000
vt 0.3015 0.6010 0.0000
vt 0.2583 0.4679 0.0000
vt 0.2767 0.4906 0.0000
vt 0.2850 0.5186 0.0000
vt 0.2819 0.5476 0.0000
vt 0.2680 0.5733 0.0000
vt 0.2453 0.5917 0.0000
vt 0.2173 0.6000 0.0000
vt 0.2996 0.8991 0.0000
vt 0.2996 0.8989 0.0000
vt 0.2863 0.4596 0.0000
vt 0.3090 0.4412 0.0000
vt 0.3230 0.4155 0.0000
vt 0.3260 0.3864 0.0000
vt 0.3175 0.3604 0.0000
vt 0.2994 0.3357 0.0000
vt 0.2728 0.6067 0.0000
vt 0.2727 0.6065 0.0000
vt 0.2830 0.4755 0.0000
vt 0.2967 0.5014 0.0000
vt 0.2993 0.5305 0.0000
vt 0.2907 0.5584 0.0000
vt 0.2719 0.5818 0.0000
vt 0.2461 0.5945 0.0000
vt 0.2708 0.8932 0.0000
vt 0.2709 0.8930 0.0000
vt 0.3089 0.4619 0.0000
vt 0.3276 0.4395 0.0000
vt 0.3363 0.4116 0.0000
vt 0.3333 0.3850 0.0000
vt 0.1177 0.6075 0.0000
vt 0.1111 0.6222 0.0000
vt 0.0944 0.6389 0.0000
vt 0.1014 0.6299 0.0000
vt 0.2456 0.6178 0.0000
vt 0.2455 0.6176 0.0000
vt 0.3047 0.4823 0.0000
vt 0.3130 0.5103 0.0000
vt 0.3100 0.5393 0.0000
vt 0.2955 0.5704 0.0000
vt 0.2733 0.5834 0.0000
vt 0.2438 0.8818 0.0000
vt 0.2439 0.8816 0.0000
vt 0.3274 0.4639 0.0000
vt 0.3414 0.4382 0.0000
vt 0.3450 0.4036 0.0000
vt 0.4377 0.3776 0.0000
vt 0.4428 0.3879 0.0000
vt 0.4539 0.4084 0.0000
vt 0.4484 0.3993 0.0000
vt 0.2211 0.6339 0.0000
vt 0.2210 0.6338 0.0000
vt 0.3225 0.4878 0.0000
vt 0.3252 0.5169 0.0000
vt 0.3163 0.5472 0.0000
vt 0.0814 0.8218 0.0000
vt 0.0758 0.8146 0.0000
vt 0.0897 0.8314 0.0000
vt 0.0932 0.8467 0.0000
vt 0.2195 0.8653 0.0000
vt 0.2196 0.8652 0.0000
vt 0.3412 0.4653 0.0000
vt 0.3499 0.4374 0.0000
vt 0.4612 0.4317 0.0000
vt 0.4554 0.4230 0.0000
vt 0.2002 0.6545 0.0000
vt 0.2001 0.6544 0.0000
vt 0.3357 0.4919 0.0000
vt 0.3324 0.5240 0.0000
vt 0.4324 0.5501 0.0000
vt 0.4395 0.5464 0.0000
vt 0.4244 0.5637 0.0000
vt 0.4175 0.5695 0.0000
vt 0.1988 0.8444 0.0000
vt 0.1990 0.8443 0.0000
vt 0.3497 0.4657 0.0000
vt 0.4646 0.4524 0.0000
vt 0.4575 0.4521 0.0000
vt 0.1838 0.6788 0.0000
vt 0.1836 0.6787 0.0000
vt 0.3434 0.4991 0.0000
vt 0.4442 0.5279 0.0000
vt 0.4514 0.5257 0.0000
vt 0.1827 0.8199 0.0000
vt 0.1829 0.8198 0.0000
vt 0.4643 0.4782 0.0000
vt 0.4572 0.4775 0.0000
vt 0.1724 0.7058 0.0000
vt 0.1722 0.7057 0.0000
vt 0.4520 0.5039 0.0000
vt 0.4594 0.5020 0.0000
vt 0.1716 0.7927 0.0000
vt 0.1718 0.7926 0.0000
vt 0.1665 0.7345 0.0000
vt 0.1663 0.7345 0.0000
vt 0.1661 0.7639 0.0000
vt 0.1663 0.7638 0.0000
vt 0.7207 0.4427 0.0000
vt 0.7151 0.4147 0.0000
vt 0.7207 0.4142 0.0000
vt 0.7262 0.4147 0.0000
vt 0.7097 0.4164 0.0000
vt 0.7097 0.3878 0.0000
vt 0.7207 0.3868 0.0000
vt 0.7316 0.4164 0.0000
vt 0.7316 0.3878 0.0000
vt 0.7048 0.4190 0.0000
vt 0.6993 0.3910 0.0000
vt 0.7048 0.3631 0.0000
vt 0.7207 0.3615 0.0000
vt 0.7365 0.4190 0.0000
vt 0.7421 0.3910 0.0000
vt 0.7365 0.3631 0.0000
vt 0.7005 0.4226 0.0000
vt 0.6896 0.3962 0.0000
vt 0.6896 0.3677 0.0000
vt 0.7005 0.3413 0.0000
vt 0.7207 0.3393 0.0000
vt 0.7408 0.4226 0.0000
vt 0.7517 0.3962 0.0000
vt 0.7517 0.3677 0.0000
vt 0.7408 0.3413 0.0000
vt 0.6969 0.4269 0.0000
vt 0.6811 0.4032 0.0000
vt 0.6755 0.3752 0.0000
vt 0.6811 0.3472 0.0000
vt 0.6969 0.3235 0.0000
vt 0.7207 0.3212 0.0000
vt 0.7444 0.4269 0.0000
vt 0.7602 0.4032 0.0000
vt 0.7658 0.3752 0.0000
vt 0.7602 0.3472 0.0000
vt 0.7444 0.3235 0.0000
vt 0.6943 0.4318 0.0000
vt 0.6741 0.4116 0.0000
vt 0.6632 0.3853 0.0000
vt 0.6632 0.3568 0.0000
vt 0.6741 0.3304 0.0000
vt 0.6943 0.3102 0.0000
vt 0.7207 0.3077 0.0000
vt 0.7470 0.4318 0.0000
vt 0.7672 0.4116 0.0000
vt 0.7781 0.3853 0.0000
vt 0.7781 0.3568 0.0000
vt 0.7672 0.3304 0.0000
vt 0.7470 0.3102 0.0000
vt 0.6927 0.4372 0.0000
vt 0.6690 0.4213 0.0000
vt 0.6531 0.3976 0.0000
vt 0.6476 0.3696 0.0000
vt 0.6531 0.3416 0.0000
vt 0.6690 0.3179 0.0000
vt 0.6927 0.3021 0.0000
vt 0.7207 0.2993 0.0000
vt 0.7486 0.4372 0.0000
vt 0.7724 0.4213 0.0000
vt 0.7882 0.3976 0.0000
vt 0.7938 0.3696 0.0000
vt 0.7882 0.3416 0.0000
vt 0.7724 0.3179 0.0000
vt 0.7486 0.3021 0.0000
vt 0.6921 0.4427 0.0000
vt 0.6658 0.4318 0.0000
vt 0.6456 0.4116 0.0000
vt 0.6347 0.3853 0.0000
vt 0.6347 0.3568 0.0000
vt 0.6456 0.3304 0.0000
vt 0.6658 0.3102 0.0000
vt 0.6921 0.2993 0.0000
vt 0.7207 0.2965 0.0000
vt 0.7492 0.4427 0.0000
vt 0.7755 0.4318 0.0000
vt 0.7957 0.4116 0.0000
vt 0.8066 0.3853 0.0000
vt 0.8066 0.3568 0.0000
vt 0.7957 0.3304 0.0000
vt 0.7755 0.3102 0.0000
vt 0.7492 0.2993 0.0000
vt 0.6927 0.4483 0.0000
vt 0.6647 0.4427 0.0000
vt 0.6410 0.4269 0.0000
vt 0.6252 0.4032 0.0000
vt 0.6196 0.3752 0.0000
vt 0.6252 0.3472 0.0000
vt 0.6410 0.3235 0.0000
vt 0.6647 0.3077 0.0000
vt 0.6446 0.8706 0.0000
vt 0.6445 0.8708 0.0000
vt 0.6206 0.8549 0.0000
vt 0.6207 0.8548 0.0000
vt 0.7486 0.4483 0.0000
vt 0.7766 0.4427 0.0000
vt 0.8003 0.4269 0.0000
vt 0.8162 0.4032 0.0000
vt 0.8217 0.3752 0.0000
vt 0.8162 0.3472 0.0000
vt 0.8003 0.3235 0.0000
vt 0.7766 0.3077 0.0000
vt 0.6710 0.8815 0.0000
vt 0.6710 0.8817 0.0000
vt 0.6943 0.4536 0.0000
vt 0.6658 0.4536 0.0000
vt 0.6394 0.4427 0.0000
vt 0.6193 0.4226 0.0000
vt 0.6084 0.3962 0.0000
vt 0.6084 0.3677 0.0000
vt 0.6193 0.3413 0.0000
vt 0.6394 0.3212 0.0000
vt 0.6003 0.8347 0.0000
vt 0.6005 0.8346 0.0000
vt 0.7470 0.4536 0.0000
vt 0.7755 0.4536 0.0000
vt 0.8019 0.4427 0.0000
vt 0.8221 0.4226 0.0000
vt 0.8330 0.3962 0.0000
vt 0.8330 0.3677 0.0000
vt 0.8221 0.3413 0.0000
vt 0.8019 0.3212 0.0000
vt 0.6991 0.8871 0.0000
vt 0.6991 0.8873 0.0000
vt 0.6969 0.4586 0.0000
vt 0.6690 0.4641 0.0000
vt 0.6410 0.4586 0.0000
vt 0.6173 0.4427 0.0000
vt 0.6014 0.4190 0.0000
vt 0.5959 0.3910 0.0000
vt 0.6014 0.3631 0.0000
vt 0.6173 0.3393 0.0000
vt 0.5843 0.8109 0.0000
vt 0.5845 0.8108 0.0000
vt 0.7444 0.4586 0.0000
vt 0.7724 0.4641 0.0000
vt 0.8003 0.4586 0.0000
vt 0.8240 0.4427 0.0000
vt 0.8399 0.4190 0.0000
vt 0.8454 0.3910 0.0000
vt 0.8399 0.3631 0.0000
vt 0.8240 0.3393 0.0000
vt 0.7277 0.8870 0.0000
vt 0.7278 0.8872 0.0000
vt 0.7005 0.4629 0.0000
vt 0.6741 0.4738 0.0000
vt 0.6456 0.4738 0.0000
vt 0.6193 0.4629 0.0000
vt 0.5991 0.4427 0.0000
vt 0.5882 0.4164 0.0000
vt 0.5882 0.3878 0.0000
vt 0.5991 0.3615 0.0000
vt 0.5733 0.7845 0.0000
vt 0.5735 0.7844 0.0000
vt 0.7408 0.4629 0.0000
vt 0.7672 0.4738 0.0000
vt 0.7957 0.4738 0.0000
vt 0.8221 0.4629 0.0000
vt 0.8422 0.4427 0.0000
vt 0.8531 0.4164 0.0000
vt 0.8531 0.3878 0.0000
vt 0.8422 0.3615 0.0000
vt 0.7558 0.8813 0.0000
vt 0.7559 0.8815 0.0000
vt 0.7048 0.4664 0.0000
vt 0.6811 0.4823 0.0000
vt 0.6531 0.4878 0.0000
vt 0.6252 0.4823 0.0000
vt 0.6014 0.4664 0.0000
vt 0.5856 0.4427 0.0000
vt 0.5800 0.4147 0.0000
vt 0.5856 0.3868 0.0000
vt 0.5677 0.7564 0.0000
vt 0.5679 0.7564 0.0000
vt 0.7365 0.4664 0.0000
vt 0.7602 0.4823 0.0000
vt 0.7882 0.4878 0.0000
vt 0.8162 0.4823 0.0000
vt 0.8399 0.4664 0.0000
vt 0.8557 0.4427 0.0000
vt 0.8613 0.4147 0.0000
vt 0.8557 0.3868 0.0000
vt 0.7822 0.8703 0.0000
vt 0.7823 0.8705 0.0000
vt 0.7097 0.4691 0.0000
vt 0.6896 0.4892 0.0000
vt 0.6632 0.5002 0.0000
vt 0.6347 0.5002 0.0000
vt 0.6084 0.4892 0.0000
vt 0.5882 0.4691 0.0000
vt 0.5773 0.4427 0.0000
vt 0.5773 0.4142 0.0000
vt 0.5676 0.7277 0.0000
vt 0.5678 0.7277 0.0000
vt 0.7316 0.4691 0.0000
vt 0.7517 0.4892 0.0000
vt 0.7781 0.5002 0.0000
vt 0.8066 0.5002 0.0000
vt 0.8330 0.4892 0.0000
vt 0.8531 0.4691 0.0000
vt 0.8641 0.4427 0.0000
vt 0.8641 0.4142 0.0000
vt 0.8060 0.8544 0.0000
vt 0.8061 0.8545 0.0000
vt 0.7151 0.4707 0.0000
vt 0.6993 0.4944 0.0000
vt 0.6755 0.5103 0.0000
vt 0.6476 0.5158 0.0000
vt 0.6196 0.5103 0.0000
vt 0.5959 0.4944 0.0000
vt 0.5800 0.4707 0.0000
vt 0.5745 0.4427 0.0000
vt 0.5731 0.6996 0.0000
vt 0.5733 0.6997 0.0000
vt 0.7262 0.4707 0.0000
vt 0.7421 0.4944 0.0000
vt 0.7658 0.5103 0.0000
vt 0.7938 0.5158 0.0000
vt 0.8217 0.5103 0.0000
vt 0.8454 0.4944 0.0000
vt 0.8613 0.4707 0.0000
vt 0.8669 0.4427 0.0000
vt 0.8262 0.8341 0.0000
vt 0.8263 0.8342 0.0000
vt 0.7207 0.4712 0.0000
vt 0.7097 0.4976 0.0000
vt 0.6896 0.5178 0.0000
vt 0.6632 0.5287 0.0000
vt 0.6347 0.5287 0.0000
vt 0.6084 0.5178 0.0000
vt 0.5882 0.4976 0.0000
vt 0.5773 0.4712 0.0000
vt 0.5840 0.6731 0.0000
vt 0.5842 0.6732 0.0000
vt 0.7316 0.4976 0.0000
vt 0.7517 0.5178 0.0000
vt 0.7781 0.5287 0.0000
vt 0.8066 0.5287 0.0000
vt 0.8330 0.5178 0.0000
vt 0.8531 0.4976 0.0000
vt 0.8641 0.4712 0.0000
vt 0.8420 0.8103 0.0000
vt 0.8422 0.8104 0.0000
vt 0.7207 0.4987 0.0000
vt 0.7048 0.5224 0.0000
vt 0.6811 0.5382 0.0000
vt 0.6531 0.5438 0.0000
vt 0.6252 0.5382 0.0000
vt 0.6014 0.5224 0.0000
vt 0.5856 0.4987 0.0000
vt 0.5999 0.6492 0.0000
vt 0.6001 0.6494 0.0000
vt 0.7365 0.5224 0.0000
vt 0.7602 0.5382 0.0000
vt 0.7882 0.5438 0.0000
vt 0.8162 0.5382 0.0000
vt 0.8399 0.5224 0.0000
vt 0.8557 0.4987 0.0000
vt 0.8529 0.7838 0.0000
vt 0.8531 0.7839 0.0000
vt 0.7207 0.5239 0.0000
vt 0.7005 0.5441 0.0000
vt 0.6741 0.5550 0.0000
vt 0.6456 0.5550 0.0000
vt 0.6193 0.5441 0.0000
vt 0.5991 0.5239 0.0000
vt 0.6201 0.6289 0.0000
vt 0.6203 0.6291 0.0000
vt 0.7408 0.5441 0.0000
vt 0.7672 0.5550 0.0000
vt 0.7957 0.5550 0.0000
vt 0.8221 0.5441 0.0000
vt 0.8422 0.5239 0.0000
vt 0.8584 0.7557 0.0000
vt 0.8586 0.7557 0.0000
vt 0.7207 0.5461 0.0000
vt 0.6969 0.5619 0.0000
vt 0.6690 0.5675 0.0000
vt 0.6410 0.5619 0.0000
vt 0.6173 0.5461 0.0000
vt 0.6439 0.6129 0.0000
vt 0.6440 0.6131 0.0000
vt 0.7444 0.5619 0.0000
vt 0.7724 0.5675 0.0000
vt 0.8003 0.5619 0.0000
vt 0.8240 0.5461 0.0000
vt 0.8584 0.7271 0.0000
vt 0.8586 0.7271 0.0000
vt 0.7207 0.5643 0.0000
vt 0.6943 0.5752 0.0000
vt 0.6658 0.5752 0.0000
vt 0.6394 0.5643 0.0000
vt 0.6704 0.6019 0.0000
vt 0.6704 0.6021 0.0000
vt 0.7470 0.5752 0.0000
vt 0.7755 0.5752 0.0000
vt 0.8019 0.5643 0.0000
vt 0.8527 0.6990 0.0000
vt 0.8529 0.6990 0.0000
vt 0.7207 0.5778 0.0000
vt 0.6927 0.5834 0.0000
vt 0.6647 0.5778 0.0000
vt 0.6985 0.5963 0.0000
vt 0.6985 0.5965 0.0000
vt 0.7486 0.5834 0.0000
vt 0.7766 0.5778 0.0000
vt 0.8417 0.6726 0.0000
vt 0.8419 0.6725 0.0000
vt 0.7207 0.5861 0.0000
vt 0.6921 0.5861 0.0000
vt 0.7271 0.5962 0.0000
vt 0.7271 0.5964 0.0000
vt 0.7492 0.5861 0.0000
vt 0.8258 0.6489 0.0000
vt 0.8259 0.6487 0.0000
vt 0.7207 0.5889 0.0000
vt 0.7553 0.6017 0.0000
vt 0.7552 0.6019 0.0000
vt 0.8055 0.6287 0.0000
vt 0.8056 0.6285 0.0000
vt 0.7818 0.6126 0.0000
vt 0.7817 0.6128 0.0000
vt 0.8057 0.3155 0.0000
vt 0.8289 0.3345 0.0000
vt 0.8479 0.3577 0.0000
vt 0.8621 0.3841 0.0000
vt 0.8708 0.4129 0.0000
vt 0.8737 0.4427 0.0000
vt 0.8708 0.4726 0.0000
vt 0.8621 0.5013 0.0000
vt 0.8479 0.5278 0.0000
vt 0.8289 0.5510 0.0000
vt 0.8057 0.5700 0.0000
vt 0.7792 0.5841 0.0000
vt 0.7505 0.5928 0.0000
vt 0.7207 0.5958 0.0000
vt 0.6908 0.5928 0.0000
vt 0.6621 0.5841 0.0000
vt 0.6356 0.5700 0.0000
vt 0.6124 0.5510 0.0000
vt 0.5934 0.5278 0.0000
vt 0.5792 0.5013 0.0000
vt 0.5705 0.4726 0.0000
vt 0.5676 0.4427 0.0000
vt 0.5747 0.4427 0.0000
vt 0.5775 0.4712 0.0000
vt 0.5858 0.4986 0.0000
vt 0.5993 0.5238 0.0000
vt 0.6174 0.5460 0.0000
vt 0.6396 0.5641 0.0000
vt 0.6648 0.5776 0.0000
vt 0.6922 0.5859 0.0000
vt 0.7207 0.5887 0.0000
vt 0.7491 0.5859 0.0000
vt 0.7765 0.5776 0.0000
vt 0.8018 0.5641 0.0000
vt 0.8239 0.5460 0.0000
vt 0.8421 0.5238 0.0000
vt 0.8555 0.4986 0.0000
vt 0.8639 0.4712 0.0000
vt 0.8667 0.4427 0.0000
vt 0.8639 0.4142 0.0000
vt 0.8555 0.3869 0.0000
vt 0.8421 0.3616 0.0000
vt 0.8239 0.3395 0.0000
vt 0.8018 0.3213 0.0000
vt 0.7765 0.3078 0.0000
vt 0.7491 0.2995 0.0000
vt 0.7207 0.2967 0.0000
vt 0.6922 0.2995 0.0000
vt 0.6648 0.3078 0.0000
vt 0.6396 0.3213 0.0000
vt 0.6174 0.3395 0.0000
vt 0.5993 0.3616 0.0000
vt 0.5858 0.3869 0.0000
vt 0.5775 0.4142 0.0000
vt 0.5705 0.4129 0.0000
vt 0.5792 0.3841 0.0000
vt 0.5934 0.3577 0.0000
vt 0.6124 0.3345 0.0000
vt 0.6356 0.3155 0.0000
vt 0.6621 0.3013 0.0000
vt 0.6908 0.2926 0.0000
vt 0.7207 0.2897 0.0000
vt 0.7505 0.2926 0.0000
vt 0.7792 0.3013 0.0000
vt 0.4265 0.3524 0.0000
vt 0.2468 0.6201 0.0000
vt 0.0792 0.6565 0.0000
vt 0.0672 0.6778 0.0000
vt 0.0596 0.6974 0.0000
vt 0.0545 0.7227 0.0000
vt 0.0544 0.7470 0.0000
vt 0.0572 0.7718 0.0000
vt 0.0646 0.7946 0.0000
vt 0.2212 0.8640 0.0000
vt 0.4006 0.5915 0.0000
vt 0.3825 0.4166 0.0000
vt 0.3925 0.3765 0.0000
vt 0.4092 0.3864 0.0000
vt 0.4187 0.4044 0.0000
vt 0.4186 0.4256 0.0000
vt 0.4087 0.4444 0.0000
vt 0.3919 0.4558 0.0000
vt 0.3725 0.4567 0.0000
vt 0.3558 0.4468 0.0000
vt 0.3463 0.4289 0.0000
vt 0.3464 0.4076 0.0000
vt 0.3562 0.3888 0.0000
vt 0.3731 0.3774 0.0000
vt 0.4512 0.4469 0.0000
vt 0.4401 0.4469 0.0000
vt 0.4401 0.4237 0.0000
vt 0.4512 0.4283 0.0000
vt 0.4246 0.4267 0.0000
vt 0.4390 0.4232 0.0000
vt 0.4390 0.4486 0.0000
vt 0.4246 0.4471 0.0000
vt 0.4330 0.4157 0.0000
vt 0.4440 0.4106 0.0000
vt 0.4440 0.4363 0.0000
vt 0.4330 0.4363 0.0000
vt 0.4440 0.4621 0.0000
vt 0.4330 0.4570 0.0000
vt 0.4226 0.4665 0.0000
vt 0.4242 0.4810 0.0000
vt 0.3988 0.4810 0.0000
vt 0.4023 0.4665 0.0000
vt 0.4280 0.3811 0.0000
vt 0.4390 0.3765 0.0000
vt 0.4390 0.3997 0.0000
vt 0.4280 0.3997 0.0000
vt 0.4390 0.4229 0.0000
vt 0.4280 0.4183 0.0000
vt 0.3691 0.4548 0.0000
vt 0.3726 0.4693 0.0000
vt 0.3472 0.4693 0.0000
vt 0.3488 0.4548 0.0000
vt 0.3932 0.4699 0.0000
vt 0.3983 0.4809 0.0000
vt 0.3725 0.4809 0.0000
vt 0.3725 0.4699 0.0000
vt 0.3467 0.4809 0.0000
vt 0.3519 0.4699 0.0000
vt 0.4246 0.4505 0.0000
vt 0.4390 0.4490 0.0000
vt 0.4390 0.4744 0.0000
vt 0.4246 0.4709 0.0000
vt 0.4512 0.4655 0.0000
vt 0.4401 0.4701 0.0000
vt 1.9620 0.3017 0.0000
vt 1.9620 -0.6983 0.0000
vt 2.0453 -0.6983 0.0000
vt 2.0453 0.3017 0.0000
vt 2.1286 -0.6983 0.0000
vt 2.1286 0.3017 0.0000
vt 2.2120 -0.6983 0.0000
vt 2.2120 0.3017 0.0000
vt 2.2953 -0.6983 0.0000
vt 2.2953 0.3017 0.0000
vt 2.3786 -0.6983 0.0000
vt 2.3786 0.3017 0.0000
vt 2.4620 -0.6983 0.0000
vt 2.4620 0.3017 0.0000
vt 2.5453 -0.6983 0.0000
vt 2.5453 0.3017 0.0000
vt 2.6286 -0.6983 0.0000
vt 2.6286 0.3017 0.0000
vt 2.7120 -0.6983 0.0000
vt 2.7120 0.3017 0.0000
vt 2.7953 -0.6983 0.0000
vt 2.7953 0.3017 0.0000
vt 2.8786 -0.6983 0.0000
vt 2.8786 0.3017 0.0000
vt 2.9620 -0.6983 0.0000
vt 2.9620 0.3017 0.0000
vt 2.9620 -0.1983 0.0000
vt 2.8626 -0.1983 0.0000
vt 2.8090 0.0020 0.0000
vt 2.8950 0.0517 0.0000
vt 2.6623 0.1487 0.0000
vt 2.7120 0.2347 0.0000
vt 2.4620 0.2024 0.0000
vt 2.2616 0.1487 0.0000
vt 2.2120 0.2347 0.0000
vt 2.1150 0.0020 0.0000
vt 2.0289 0.0517 0.0000
vt 2.0613 -0.1983 0.0000
vt 1.9620 -0.1983 0.0000
vt 2.1150 -0.3987 0.0000
vt 2.0289 -0.4483 0.0000
vt 2.2616 -0.5453 0.0000
vt 2.2120 -0.6313 0.0000
vt 2.4620 -0.5990 0.0000
vt 2.6623 -0.5453 0.0000
vt 2.7120 -0.6313 0.0000
vt 2.8090 -0.3987 0.0000
vt 2.8950 -0.4483 0.0000
vt 2.4620 -0.1983 0.0000
# 836 texture coords

o Sphere001
g Sphere001
usemtl 01___Default
s 1
f 1/1/1 2/2/2 3/3/3 
f 1/1/1 3/3/3 4/4/4 
f 1/1/1 5/5/5 2/2/2 
f 2/2/2 6/6/6 7/7/7 3/3/3 
f 1/1/1 4/4/4 8/8/8 
f 3/3/3 7/7/7 9/9/9 4/4/4 
f 1/1/1 10/10/10 5/5/5 
f 5/5/5 11/11/11 6/6/6 2/2/2 
f 6/6/6 12/12/12 13/13/13 7/7/7 
f 1/1/1 8/8/8 14/14/14 
f 4/4/4 9/9/9 15/15/15 8/8/8 
f 7/7/7 13/13/13 16/16/16 9/9/9 
f 1/1/1 17/17/17 10/10/10 
f 10/10/10 18/18/18 11/11/11 5/5/5 
f 11/11/11 19/19/19 12/12/12 6/6/6 
f 12/12/12 20/20/20 21/21/21 13/13/13 
f 1/1/1 14/14/14 22/22/22 
f 8/8/8 15/15/15 23/23/23 14/14/14 
f 9/9/9 16/16/16 24/24/24 15/15/15 
f 13/13/13 21/21/21 25/25/25 16/16/16 
f 1/1/1 26/26/26 17/17/17 
f 17/17/17 27/27/27 18/18/18 10/10/10 
f 18/18/18 28/28/28 19/19/19 11/11/11 
f 19/19/19 29/29/29 20/20/20 12/12/12 
f 20/20/20 30/30/30 31/31/31 21/21/21 
f 1/1/1 22/22/22 32/32/32 
f 14/14/14 23/23/23 33/33/33 22/22/22 
f 15/15/15 24/24/24 34/34/34 23/23/23 
f 16/16/16 25/25/25 35/35/35 24/24/24 
f 21/21/21 31/31/31 36/36/36 25/25/25 
f 1/1/1 37/37/37 26/26/26 
f 26/26/26 38/38/38 27/27/27 17/17/17 
f 27/27/27 39/39/39 28/28/28 18/18/18 
f 28/28/28 40/40/40 29/29/29 19/19/19 
f 29/29/29 41/41/41 30/30/30 20/20/20 
f 30/30/30 42/42/42 43/43/43 31/31/31 
f 1/1/1 32/32/32 44/44/44 
f 22/22/22 33/33/33 45/45/45 32/32/32 
f 23/23/23 34/34/34 46/46/46 33/33/33 
f 24/24/24 35/35/35 47/47/47 34/34/34 
f 25/25/25 36/36/36 48/48/48 35/35/35 
f 31/31/31 43/43/43 49/49/49 36/36/36 
f 1/1/1 50/50/50 37/37/37 
f 37/37/37 51/51/51 38/38/38 26/26/26 
f 38/38/38 52/52/52 39/39/39 27/27/27 
f 39/39/39 53/53/53 40/40/40 28/28/28 
f 40/40/40 54/54/54 41/41/41 29/29/29 
f 41/41/41 55/55/55 42/42/42 30/30/30 
f 42/42/42 56/56/56 57/57/57 43/43/43 
f 1/1/1 44/44/44 58/58/58 
f 32/32/32 45/45/45 59/59/59 44/44/44 
f 33/33/33 46/46/46 60/60/60 45/45/45 
f 34/34/34 47/47/47 61/61/61 46/46/46 
f 35/35/35 48/48/48 62/62/62 47/47/47 
f 36/36/36 49/49/49 63/63/63 48/48/48 
f 43/43/43 57/57/57 64/64/64 49/49/49 
f 1/1/1 65/65/65 50/50/50 
f 50/50/50 66/66/66 51/51/51 37/37/37 
f 51/51/51 67/67/67 52/52/52 38/38/38 
f 52/52/52 68/68/68 53/53/53 39/39/39 
f 53/53/53 69/69/69 54/54/54 40/40/40 
f 54/54/54 70/70/70 55/55/55 41/41/41 
f 55/55/55 71/71/71 56/56/56 42/42/42 
f 56/56/56 72/72/72 73/73/73 57/57/57 
f 1/1/1 58/58/58 74/74/74 
f 44/44/44 59/59/59 75/75/75 58/58/58 
f 45/45/45 60/60/60 76/76/76 59/59/59 
f 46/46/46 61/61/61 77/77/77 60/60/60 
f 47/47/47 62/62/62 78/78/78 61/61/61 
f 48/48/48 63/63/63 79/79/79 62/62/62 
f 49/49/49 64/64/64 80/80/80 63/63/63 
f 57/57/57 73/73/73 81/81/81 64/64/64 
f 1/1/1 82/82/82 65/65/65 
f 65/65/65 83/83/83 66/66/66 50/50/50 
f 66/66/66 84/84/84 67/67/67 51/51/51 
f 67/67/67 85/85/85 68/68/68 52/52/52 
f 68/68/68 86/86/86 69/69/69 53/53/53 
f 69/69/69 87/87/87 70/70/70 54/54/54 
f 70/70/70 88/88/88 71/71/71 55/55/55 
f 71/71/71 89/89/89 72/72/72 56/56/56 
f 90/90/90 73/91/73 72/92/72 91/93/91 
f 1/1/1 74/74/74 92/94/92 
f 58/58/58 75/75/75 93/95/93 74/74/74 
f 59/59/59 76/76/76 94/96/94 75/75/75 
f 60/60/60 77/77/77 95/97/95 76/76/76 
f 61/61/61 78/78/78 96/98/96 77/77/77 
f 62/62/62 79/79/79 97/99/97 78/78/78 
f 63/63/63 80/80/80 98/100/98 79/79/79 
f 64/64/64 81/81/81 99/101/99 80/80/80 
f 100/102/100 81/103/81 73/91/73 90/90/90 
f 1/1/1 101/104/101 82/82/82 
f 82/82/82 102/105/102 83/83/83 65/65/65 
f 83/83/83 103/106/103 84/84/84 66/66/66 
f 84/84/84 104/107/104 85/85/85 67/67/67 
f 85/85/85 105/108/105 86/86/86 68/68/68 
f 86/86/86 106/109/106 87/87/87 69/69/69 
f 87/87/87 107/110/107 88/88/88 70/70/70 
f 88/88/88 108/111/108 89/89/89 71/71/71 
f 91/93/91 72/92/72 89/112/89 109/113/109 
f 1/1/1 92/94/92 110/114/110 
f 74/74/74 93/95/93 111/115/111 92/94/92 
f 75/75/75 94/96/94 112/116/112 93/95/93 
f 76/76/76 95/97/95 113/117/113 94/96/94 
f 77/77/77 96/98/96 114/118/114 95/97/95 
f 78/78/78 97/99/97 115/119/115 96/98/96 
f 79/79/79 98/100/98 116/120/116 97/99/97 
f 80/80/80 99/101/99 117/121/117 98/100/98 
f 118/122/118 99/123/99 81/103/81 100/102/100 
f 1/1/1 119/124/119 101/104/101 
f 101/104/101 120/125/120 102/105/102 82/82/82 
f 102/105/102 121/126/121 103/106/103 83/83/83 
f 103/106/103 122/127/122 104/107/104 84/84/84 
f 104/107/104 123/128/123 105/108/105 85/85/85 
f 105/108/105 124/129/124 106/109/106 86/86/86 
f 106/109/106 125/130/125 107/110/107 87/87/87 
f 107/110/107 126/131/126 108/111/108 88/88/88 
f 109/113/109 89/112/89 108/132/108 127/133/127 
f 1/1/1 110/114/110 128/134/128 
f 92/94/92 111/115/111 129/135/129 110/114/110 
f 93/95/93 112/116/112 130/136/130 111/115/111 
f 94/96/94 113/117/113 131/137/131 112/116/112 
f 95/97/95 114/118/114 132/138/132 113/117/113 
f 96/98/96 115/119/115 133/139/133 114/118/114 
f 97/99/97 116/120/116 134/140/134 115/119/115 
f 98/100/98 117/121/117 135/141/135 116/120/116 
f 136/142/136 117/143/117 99/123/99 118/122/118 
f 1/1/1 137/144/137 119/124/119 
f 119/124/119 138/145/138 120/125/120 101/104/101 
f 120/125/120 139/146/139 121/126/121 102/105/102 
f 121/126/121 140/147/140 122/127/122 103/106/103 
f 122/127/122 141/148/141 123/128/123 104/107/104 
f 123/128/123 142/149/142 124/129/124 105/108/105 
f 124/129/124 143/150/143 125/130/125 106/109/106 
f 125/130/125 144/151/144 126/131/126 107/110/107 
f 127/133/127 108/132/108 126/152/126 145/153/145 
f 1/1/1 128/134/128 146/154/146 
f 110/114/110 129/135/129 147/155/147 128/134/128 
f 111/115/111 130/136/130 148/156/148 129/135/129 
f 112/116/112 131/137/131 149/157/149 130/136/130 
f 113/117/113 132/138/132 150/158/150 131/137/131 
f 114/118/114 133/139/133 151/159/151 132/138/132 
f 115/119/115 134/140/134 152/160/152 133/139/133 
f 116/120/116 135/141/135 153/161/153 134/140/134 
f 154/162/154 135/163/135 117/143/117 136/142/136 
f 1/1/1 155/164/155 137/144/137 
f 137/144/137 156/165/156 138/145/138 119/124/119 
f 138/145/138 157/166/157 139/146/139 120/125/120 
f 139/146/139 158/167/158 140/147/140 121/126/121 
f 140/147/140 159/168/159 141/148/141 122/127/122 
f 141/148/141 160/169/160 142/149/142 123/128/123 
f 142/149/142 161/170/161 143/150/143 124/129/124 
f 143/150/143 162/171/162 144/151/144 125/130/125 
f 145/153/145 126/152/126 144/172/144 163/173/163 
f 1/1/1 146/154/146 164/174/164 
f 128/134/128 147/155/147 165/175/165 146/154/146 
f 129/135/129 148/156/148 166/176/166 147/155/147 
f 130/136/130 149/157/149 167/177/167 148/156/148 
f 131/137/131 150/158/150 168/178/168 149/157/149 
f 132/138/132 151/159/151 169/179/169 150/158/150 
f 133/139/133 152/160/152 170/180/170 151/159/151 
f 134/140/134 153/161/153 171/181/171 152/160/152 
f 172/182/172 153/183/153 135/163/135 154/162/154 
f 1/1/1 173/184/173 155/164/155 
f 155/164/155 174/185/174 156/165/156 137/144/137 
f 156/165/156 175/186/175 157/166/157 138/145/138 
f 157/166/157 176/187/176 158/167/158 139/146/139 
f 158/167/158 177/188/177 159/168/159 140/147/140 
f 159/168/159 178/189/178 160/169/160 141/148/141 
f 160/169/160 179/190/179 161/170/161 142/149/142 
f 161/170/161 180/191/180 162/171/162 143/150/143 
f 163/173/163 144/172/144 162/192/162 181/193/181 
f 1/1/1 164/174/164 182/194/182 
f 146/154/146 165/175/165 183/195/183 164/174/164 
f 147/155/147 166/176/166 184/196/184 165/175/165 
f 148/156/148 167/177/167 185/197/185 166/176/166 
f 149/157/149 168/178/168 186/198/186 167/177/167 
f 150/158/150 169/179/169 187/199/187 168/178/168 
f 151/159/151 170/180/170 188/200/188 169/179/169 
f 152/160/152 171/181/171 189/201/189 170/180/170 
f 190/202/190 171/203/171 153/183/153 172/182/172 
f 1/1/1 191/204/191 173/184/173 
f 173/184/173 192/205/192 174/185/174 155/164/155 
f 174/185/174 193/206/193 175/186/175 156/165/156 
f 175/186/175 194/207/194 176/187/176 157/166/157 
f 176/187/176 195/208/195 177/188/177 158/167/158 
f 177/188/177 196/209/196 178/189/178 159/168/159 
f 178/189/178 197/210/197 179/190/179 160/169/160 
f 179/190/179 198/211/198 180/191/180 161/170/161 
f 181/193/181 162/192/162 180/212/180 199/213/199 
f 1/1/1 182/194/182 200/214/200 
f 164/174/164 183/195/183 201/215/201 182/194/182 
f 165/175/165 184/196/184 202/216/202 183/195/183 
f 166/176/166 185/197/185 203/217/203 184/196/184 
f 167/177/167 186/198/186 204/218/204 185/197/185 
f 168/178/168 187/199/187 205/219/205 186/198/186 
f 169/179/169 188/200/188 206/220/206 187/199/187 
f 170/180/170 189/201/189 207/221/207 188/200/188 
f 208/222/208 189/223/189 171/203/171 190/202/190 
f 1/1/1 209/224/209 191/204/191 
f 191/204/191 210/225/210 192/205/192 173/184/173 
f 192/205/192 211/226/211 193/206/193 174/185/174 
f 193/206/193 212/227/212 194/207/194 175/186/175 
f 194/207/194 213/228/213 195/208/195 176/187/176 
f 195/208/195 214/229/214 196/209/196 177/188/177 
f 196/209/196 215/230/215 197/210/197 178/189/178 
f 197/210/197 216/231/216 198/211/198 179/190/179 
f 199/213/199 180/212/180 198/232/198 217/233/217 
f 1/1/1 200/214/200 209/224/209 
f 182/194/182 201/215/201 218/234/218 200/214/200 
f 183/195/183 202/216/202 219/235/219 201/215/201 
f 184/196/184 203/217/203 220/236/220 202/216/202 
f 185/197/185 204/218/204 221/237/221 203/217/203 
f 186/198/186 205/219/205 222/238/222 204/218/204 
f 187/199/187 206/220/206 223/239/223 205/219/205 
f 188/200/188 207/221/207 224/240/224 206/220/206 
f 225/241/225 207/242/207 189/223/189 208/222/208 
f 209/224/209 226/243/226 210/225/210 191/204/191 
f 210/225/210 227/244/227 211/226/211 192/205/192 
f 211/226/211 228/245/228 212/227/212 193/206/193 
f 212/227/212 229/246/229 213/228/213 194/207/194 
f 213/228/213 230/247/230 214/229/214 195/208/195 
f 214/229/214 231/248/231 215/230/215 196/209/196 
f 215/230/215 232/249/232 216/231/216 197/210/197 
f 217/233/217 198/232/198 216/250/216 233/251/233 
f 200/214/200 218/234/218 226/243/226 209/224/209 
f 201/215/201 219/235/219 234/252/234 218/234/218 
f 202/216/202 220/236/220 235/253/235 219/235/219 
f 203/217/203 221/237/221 236/254/236 220/236/220 
f 204/218/204 222/238/222 237/255/237 221/237/221 
f 205/219/205 223/239/223 238/256/238 222/238/222 
f 206/220/206 224/240/224 239/257/239 223/239/223 
f 240/258/240 224/259/224 207/242/207 225/241/225 
f 226/243/226 241/260/241 227/244/227 210/225/210 
f 227/244/227 242/261/242 228/245/228 211/226/211 
f 228/245/228 243/262/243 229/246/229 212/227/212 
f 229/246/229 244/263/244 230/247/230 213/228/213 
f 230/247/230 245/264/245 231/248/231 214/229/214 
f 231/248/231 246/265/246 232/249/232 215/230/215 
f 233/251/233 216/250/216 232/266/232 247/267/247 
f 218/234/218 234/252/234 241/260/241 226/243/226 
f 219/235/219 235/253/235 248/268/248 234/252/234 
f 220/236/220 236/254/236 249/269/249 235/253/235 
f 221/237/221 237/255/237 250/270/250 236/254/236 
f 222/238/222 238/256/238 251/271/251 237/255/237 
f 252/272/252 253/273/253 254/274/254 255/275/255 
f 256/276/256 239/277/239 224/259/224 240/258/240 
f 241/260/241 257/278/257 242/261/242 227/244/227 
f 242/261/242 258/279/258 243/262/243 228/245/228 
f 243/262/243 259/280/259 244/263/244 229/246/229 
f 244/263/244 260/281/260 245/264/245 230/247/230 
f 245/264/245 261/282/261 246/265/246 231/248/231 
f 247/267/247 232/266/232 246/283/246 262/284/262 
f 234/252/234 248/268/248 257/278/257 241/260/241 
f 235/253/235 249/269/249 263/285/263 248/268/248 
f 236/254/236 250/270/250 264/286/264 249/269/249 
f 237/255/237 251/271/251 265/287/265 250/270/250 
f 255/288/255 254/289/254 266/290/266 267/291/267 
f 268/292/268 269/293/269 239/277/239 256/276/256 
f 257/278/257 270/294/270 258/279/258 242/261/242 
f 258/279/258 271/295/271 259/280/259 243/262/243 
f 259/280/259 272/296/272 260/281/260 244/263/244 
f 273/297/273 274/298/274 275/299/275 276/300/276 
f 262/284/262 246/283/246 261/301/261 277/302/277 
f 248/268/248 263/285/263 270/294/270 257/278/257 
f 249/269/249 264/286/264 278/303/278 263/285/263 
f 250/270/250 265/287/265 279/304/279 264/286/264 
f 267/291/267 266/290/266 280/305/280 281/306/281 
f 282/307/282 283/308/283 269/293/269 268/292/268 
f 270/294/270 284/309/284 271/295/271 258/279/258 
f 271/295/271 285/310/285 272/296/272 259/280/259 
f 286/311/286 287/312/287 274/313/274 273/314/273 
f 277/302/277 261/301/261 288/315/288 289/316/289 
f 263/285/263 278/303/278 284/309/284 270/294/270 
f 264/286/264 279/304/279 290/317/290 278/303/278 
f 281/306/281 280/305/280 291/318/291 292/319/292 
f 293/320/293 294/321/294 283/308/283 282/307/282 
f 284/309/284 295/322/295 285/310/285 271/295/271 
f 296/323/296 297/324/297 287/312/287 286/311/286 
f 289/316/289 288/315/288 298/325/298 299/326/299 
f 278/303/278 290/317/290 295/322/295 284/309/284 
f 292/319/292 291/318/291 300/327/300 301/328/301 
f 302/329/302 303/330/303 294/321/294 293/320/293 
f 304/331/304 305/332/305 297/324/297 296/323/296 
f 299/326/299 298/325/298 306/333/306 307/334/307 
f 301/328/301 300/327/300 305/332/305 304/331/304 
f 308/335/308 309/336/309 303/330/303 302/329/302 
f 307/334/307 306/333/306 310/337/310 311/338/311 
f 311/338/311 310/337/310 309/336/309 308/335/308 
s 2
f 312/339/312 313/340/313 314/341/314 
f 312/339/312 314/341/314 315/342/315 
f 312/339/312 316/343/316 313/340/313 
f 314/341/314 313/340/313 317/344/317 318/345/318 
f 312/339/312 315/342/315 319/346/319 
f 315/342/315 314/341/314 318/345/318 320/347/320 
f 312/339/312 321/348/321 316/343/316 
f 313/340/313 316/343/316 322/349/322 317/344/317 
f 318/345/318 317/344/317 323/350/323 324/351/324 
f 312/339/312 319/346/319 325/352/325 
f 319/346/319 315/342/315 320/347/320 326/353/326 
f 320/347/320 318/345/318 324/351/324 327/354/327 
f 312/339/312 328/355/328 321/348/321 
f 316/343/316 321/348/321 329/356/329 322/349/322 
f 317/344/317 322/349/322 330/357/330 323/350/323 
f 324/351/324 323/350/323 331/358/331 332/359/332 
f 312/339/312 325/352/325 333/360/333 
f 325/352/325 319/346/319 326/353/326 334/361/334 
f 326/353/326 320/347/320 327/354/327 335/362/335 
f 327/354/327 324/351/324 332/359/332 336/363/336 
f 312/339/312 337/364/337 328/355/328 
f 321/348/321 328/355/328 338/365/338 329/356/329 
f 322/349/322 329/356/329 339/366/339 330/357/330 
f 323/350/323 330/357/330 340/367/340 331/358/331 
f 332/359/332 331/358/331 341/368/341 342/369/342 
f 312/339/312 333/360/333 343/370/343 
f 333/360/333 325/352/325 334/361/334 344/371/344 
f 334/361/334 326/353/326 335/362/335 345/372/345 
f 335/362/335 327/354/327 336/363/336 346/373/346 
f 336/363/336 332/359/332 342/369/342 347/374/347 
f 312/339/312 348/375/348 337/364/337 
f 328/355/328 337/364/337 349/376/349 338/365/338 
f 329/356/329 338/365/338 350/377/350 339/366/339 
f 330/357/330 339/366/339 351/378/351 340/367/340 
f 331/358/331 340/367/340 352/379/352 341/368/341 
f 342/369/342 341/368/341 353/380/353 354/381/354 
f 312/339/312 343/370/343 355/382/355 
f 343/370/343 333/360/333 344/371/344 356/383/356 
f 344/371/344 334/361/334 345/372/345 357/384/357 
f 345/372/345 335/362/335 346/373/346 358/385/358 
f 346/373/346 336/363/336 347/374/347 359/386/359 
f 347/374/347 342/369/342 354/381/354 360/387/360 
f 312/339/312 361/388/361 348/375/348 
f 337/364/337 348/375/348 362/389/362 349/376/349 
f 338/365/338 349/376/349 363/390/363 350/377/350 
f 339/366/339 350/377/350 364/391/364 351/378/351 
f 340/367/340 351/378/351 365/392/365 352/379/352 
f 341/368/341 352/379/352 366/393/366 353/380/353 
f 354/381/354 353/380/353 367/394/367 368/395/368 
f 312/339/312 355/382/355 369/396/369 
f 355/382/355 343/370/343 356/383/356 370/397/370 
f 356/383/356 344/371/344 357/384/357 371/398/371 
f 357/384/357 345/372/345 358/385/358 372/399/372 
f 358/385/358 346/373/346 359/386/359 373/400/373 
f 359/386/359 347/374/347 360/387/360 374/401/374 
f 360/387/360 354/381/354 368/395/368 375/402/375 
f 312/339/312 376/403/376 361/388/361 
f 348/375/348 361/388/361 377/404/377 362/389/362 
f 349/376/349 362/389/362 378/405/378 363/390/363 
f 350/377/350 363/390/363 379/406/379 364/391/364 
f 351/378/351 364/391/364 380/407/380 365/392/365 
f 352/379/352 365/392/365 381/408/381 366/393/366 
f 353/380/353 366/393/366 382/409/382 367/394/367 
f 368/395/368 367/394/367 383/410/383 384/411/384 
f 312/339/312 369/396/369 385/412/385 
f 369/396/369 355/382/355 370/397/370 386/413/386 
f 370/397/370 356/383/356 371/398/371 387/414/387 
f 371/398/371 357/384/357 372/399/372 388/415/388 
f 372/399/372 358/385/358 373/400/373 389/416/389 
f 373/400/373 359/386/359 374/401/374 390/417/390 
f 374/401/374 360/387/360 375/402/375 391/418/391 
f 375/402/375 368/395/368 384/411/384 392/419/392 
f 312/339/312 393/420/393 376/403/376 
f 361/388/361 376/403/376 394/421/394 377/404/377 
f 362/389/362 377/404/377 395/422/395 378/405/378 
f 363/390/363 378/405/378 396/423/396 379/406/379 
f 364/391/364 379/406/379 397/424/397 380/407/380 
f 365/392/365 380/407/380 398/425/398 381/408/381 
f 366/393/366 381/408/381 399/426/399 382/409/382 
f 367/394/367 382/409/382 400/427/400 383/410/383 
f 401/428/401 384/429/384 383/430/383 402/431/402 
f 312/339/312 385/412/385 403/432/403 
f 385/412/385 369/396/369 386/413/386 404/433/404 
f 386/413/386 370/397/370 387/414/387 405/434/405 
f 387/414/387 371/398/371 388/415/388 406/435/406 
f 388/415/388 372/399/372 389/416/389 407/436/407 
f 389/416/389 373/400/373 390/417/390 408/437/408 
f 390/417/390 374/401/374 391/418/391 409/438/409 
f 391/418/391 375/402/375 392/419/392 410/439/410 
f 411/440/411 392/441/392 384/429/384 401/428/401 
f 312/339/312 412/442/412 393/420/393 
f 376/403/376 393/420/393 413/443/413 394/421/394 
f 377/404/377 394/421/394 414/444/414 395/422/395 
f 378/405/378 395/422/395 415/445/415 396/423/396 
f 379/406/379 396/423/396 416/446/416 397/424/397 
f 380/407/380 397/424/397 417/447/417 398/425/398 
f 381/408/381 398/425/398 418/448/418 399/426/399 
f 382/409/382 399/426/399 419/449/419 400/427/400 
f 402/431/402 383/430/383 400/450/400 420/451/420 
f 312/339/312 403/432/403 421/452/421 
f 403/432/403 385/412/385 404/433/404 422/453/422 
f 404/433/404 386/413/386 405/434/405 423/454/423 
f 405/434/405 387/414/387 406/435/406 424/455/424 
f 406/435/406 388/415/388 407/436/407 425/456/425 
f 407/436/407 389/416/389 408/437/408 426/457/426 
f 408/437/408 390/417/390 409/438/409 427/458/427 
f 409/438/409 391/418/391 410/439/410 428/459/428 
f 429/460/429 410/461/410 392/441/392 411/440/411 
f 312/339/312 430/462/430 412/442/412 
f 393/420/393 412/442/412 431/463/431 413/443/413 
f 394/421/394 413/443/413 432/464/432 414/444/414 
f 395/422/395 414/444/414 433/465/433 415/445/415 
f 396/423/396 415/445/415 434/466/434 416/446/416 
f 397/424/397 416/446/416 435/467/435 417/447/417 
f 398/425/398 417/447/417 436/468/436 418/448/418 
f 399/426/399 418/448/418 437/469/437 419/449/419 
f 420/451/420 400/450/400 419/470/419 438/471/438 
f 312/339/312 421/452/421 439/472/439 
f 421/452/421 403/432/403 422/453/422 440/473/440 
f 422/453/422 404/433/404 423/454/423 441/474/441 
f 423/454/423 405/434/405 424/455/424 442/475/442 
f 424/455/424 406/435/406 425/456/425 443/476/443 
f 425/456/425 407/436/407 426/457/426 444/477/444 
f 426/457/426 408/437/408 427/458/427 445/478/445 
f 427/458/427 409/438/409 428/459/428 446/479/446 
f 447/480/447 428/481/428 410/461/410 429/460/429 
f 312/339/312 448/482/448 430/462/430 
f 412/442/412 430/462/430 449/483/449 431/463/431 
f 413/443/413 431/463/431 450/484/450 432/464/432 
f 414/444/414 432/464/432 451/485/451 433/465/433 
f 415/445/415 433/465/433 452/486/452 434/466/434 
f 416/446/416 434/466/434 453/487/453 435/467/435 
f 417/447/417 435/467/435 454/488/454 436/468/436 
f 418/448/418 436/468/436 455/489/455 437/469/437 
f 438/471/438 419/470/419 437/490/437 456/491/456 
f 312/339/312 439/472/439 457/492/457 
f 439/472/439 421/452/421 440/473/440 458/493/458 
f 440/473/440 422/453/422 441/474/441 459/494/459 
f 441/474/441 423/454/423 442/475/442 460/495/460 
f 442/475/442 424/455/424 443/476/443 461/496/461 
f 443/476/443 425/456/425 444/477/444 462/497/462 
f 444/477/444 426/457/426 445/478/445 463/498/463 
f 445/478/445 427/458/427 446/479/446 464/499/464 
f 465/500/465 446/501/446 428/481/428 447/480/447 
f 312/339/312 466/502/466 448/482/448 
f 430/462/430 448/482/448 467/503/467 449/483/449 
f 431/463/431 449/483/449 468/504/468 450/484/450 
f 432/464/432 450/484/450 469/505/469 451/485/451 
f 433/465/433 451/485/451 470/506/470 452/486/452 
f 434/466/434 452/486/452 471/507/471 453/487/453 
f 435/467/435 453/487/453 472/508/472 454/488/454 
f 436/468/436 454/488/454 473/509/473 455/489/455 
f 456/491/456 437/490/437 455/510/455 474/511/474 
f 312/339/312 457/492/457 475/512/475 
f 457/492/457 439/472/439 458/493/458 476/513/476 
f 458/493/458 440/473/440 459/494/459 477/514/477 
f 459/494/459 441/474/441 460/495/460 478/515/478 
f 460/495/460 442/475/442 461/496/461 479/516/479 
f 461/496/461 443/476/443 462/497/462 480/517/480 
f 462/497/462 444/477/444 463/498/463 481/518/481 
f 463/498/463 445/478/445 464/499/464 482/519/224 
f 483/520/482 464/521/464 446/501/446 465/500/465 
f 312/339/312 484/522/483 466/502/466 
f 448/482/448 466/502/466 485/523/484 467/503/467 
f 449/483/449 467/503/467 486/524/485 468/504/468 
f 450/484/450 468/504/468 487/525/486 469/505/469 
f 451/485/451 469/505/469 488/526/487 470/506/470 
f 452/486/452 470/506/470 489/527/488 471/507/471 
f 453/487/453 471/507/471 490/528/489 472/508/472 
f 454/488/454 472/508/472 491/529/490 473/509/473 
f 474/511/474 455/510/455 473/530/473 492/531/491 
f 312/339/312 475/512/475 493/532/492 
f 475/512/475 457/492/457 476/513/476 494/533/493 
f 476/513/476 458/493/458 477/514/477 495/534/494 
f 477/514/477 459/494/459 478/515/478 496/535/495 
f 478/515/478 460/495/460 479/516/479 497/536/496 
f 479/516/479 461/496/461 480/517/480 498/537/497 
f 480/517/480 462/497/462 481/518/481 499/538/498 
f 481/518/481 463/498/463 482/519/224 500/539/207 
f 501/540/499 482/541/224 464/521/464 483/520/482 
f 312/339/312 502/542/500 484/522/483 
f 466/502/466 484/522/483 503/543/501 485/523/484 
f 467/503/467 485/523/484 504/544/502 486/524/485 
f 468/504/468 486/524/485 505/545/503 487/525/486 
f 469/505/469 487/525/486 506/546/504 488/526/487 
f 470/506/470 488/526/487 507/547/505 489/527/488 
f 471/507/471 489/527/488 508/548/506 490/528/489 
f 472/508/472 490/528/489 509/549/507 491/529/490 
f 492/531/491 473/530/473 491/550/490 510/551/508 
f 312/339/312 493/532/492 511/552/509 
f 493/532/492 475/512/475 494/533/493 512/553/510 
f 494/533/493 476/513/476 495/534/494 513/554/511 
f 495/534/494 477/514/477 496/535/495 514/555/512 
f 496/535/495 478/515/478 497/536/496 515/556/513 
f 497/536/496 479/516/479 498/537/497 516/557/514 
f 498/537/497 480/517/480 499/538/498 517/558/515 
f 499/538/498 481/518/481 500/539/207 518/559/189 
f 519/560/516 500/561/207 482/541/224 501/540/499 
f 312/339/312 520/562/517 502/542/500 
f 484/522/483 502/542/500 521/563/518 503/543/501 
f 485/523/484 503/543/501 522/564/519 504/544/502 
f 486/524/485 504/544/502 523/565/520 505/545/503 
f 487/525/486 505/545/503 524/566/521 506/546/504 
f 488/526/487 506/546/504 525/567/522 507/547/505 
f 489/527/488 507/547/505 526/568/523 508/548/506 
f 490/528/489 508/548/506 527/569/198 509/549/507 
f 510/551/508 491/550/490 509/570/507 528/571/524 
f 312/339/312 511/552/509 520/562/517 
f 511/552/509 493/532/492 512/553/510 529/572/525 
f 512/553/510 494/533/493 513/554/511 530/573/526 
f 513/554/511 495/534/494 514/555/512 531/574/527 
f 514/555/512 496/535/495 515/556/513 532/575/528 
f 515/556/513 497/536/496 516/557/514 533/576/529 
f 516/557/514 498/537/497 517/558/515 534/577/530 
f 517/558/515 499/538/498 518/559/189 535/578/171 
f 536/579/531 518/580/189 500/561/207 519/560/516 
f 502/542/500 520/562/517 537/581/532 521/563/518 
f 503/543/501 521/563/518 538/582/533 522/564/519 
f 504/544/502 522/564/519 539/583/534 523/565/520 
f 505/545/503 523/565/520 540/584/535 524/566/521 
f 506/546/504 524/566/521 541/585/536 525/567/522 
f 507/547/505 525/567/522 542/586/537 526/568/523 
f 508/548/506 526/568/523 543/587/180 527/569/198 
f 528/571/524 509/570/507 527/588/198 544/589/538 
f 520/562/517 511/552/509 529/572/525 537/581/532 
f 529/572/525 512/553/510 530/573/526 545/590/539 
f 530/573/526 513/554/511 531/574/527 546/591/540 
f 531/574/527 514/555/512 532/575/528 547/592/541 
f 532/575/528 515/556/513 533/576/529 548/593/542 
f 533/576/529 516/557/514 534/577/530 549/594/543 
f 534/577/530 517/558/515 535/578/171 550/595/153 
f 551/596/544 535/597/171 518/580/189 536/579/531 
f 521/563/518 537/581/532 552/598/545 538/582/533 
f 522/564/519 538/582/533 553/599/546 539/583/534 
f 523/565/520 539/583/534 554/600/547 540/584/535 
f 524/566/521 540/584/535 555/601/548 541/585/536 
f 525/567/522 541/585/536 556/602/549 542/586/537 
f 526/568/523 542/586/537 557/603/550 543/587/180 
f 544/589/538 527/588/198 543/604/180 558/605/551 
f 537/581/532 529/572/525 545/590/539 552/598/545 
f 545/590/539 530/573/526 546/591/540 559/606/552 
f 546/591/540 531/574/527 547/592/541 560/607/553 
f 547/592/541 532/575/528 548/593/542 561/608/554 
f 548/593/542 533/576/529 549/594/543 562/609/555 
f 549/594/543 534/577/530 550/595/153 563/610/135 
f 564/611/556 550/612/153 535/597/171 551/596/544 
f 538/582/533 552/598/545 565/613/557 553/599/546 
f 539/583/534 553/599/546 566/614/558 554/600/547 
f 540/584/535 554/600/547 567/615/559 555/601/548 
f 541/585/536 555/601/548 568/616/560 556/602/549 
f 542/586/537 556/602/549 569/617/561 557/603/550 
f 558/605/551 543/604/180 557/618/550 570/619/562 
f 552/598/545 545/590/539 559/606/552 565/613/557 
f 559/606/552 546/591/540 560/607/553 571/620/563 
f 560/607/553 547/592/541 561/608/554 572/621/564 
f 561/608/554 548/593/542 562/609/555 573/622/565 
f 562/609/555 549/594/543 563/610/135 574/623/117 
f 575/624/566 563/625/135 550/612/153 564/611/556 
f 553/599/546 565/613/557 576/626/567 566/614/558 
f 554/600/547 566/614/558 577/627/568 567/615/559 
f 555/601/548 567/615/559 578/628/569 568/616/560 
f 556/602/549 568/616/560 579/629/126 569/617/561 
f 570/619/562 557/618/550 569/630/561 580/631/570 
f 565/613/557 559/606/552 571/620/563 576/626/567 
f 571/620/563 560/607/553 572/621/564 581/632/571 
f 572/621/564 561/608/554 573/622/565 582/633/572 
f 573/622/565 562/609/555 574/623/117 583/634/99 
f 584/635/573 574/636/117 563/625/135 575/624/566 
f 566/614/558 576/626/567 585/637/574 577/627/568 
f 567/615/559 577/627/568 586/638/575 578/628/569 
f 568/616/560 578/628/569 587/639/108 579/629/126 
f 580/631/570 569/630/561 579/640/126 588/641/576 
f 576/626/567 571/620/563 581/632/571 585/637/574 
f 581/632/571 572/621/564 582/633/572 589/642/577 
f 582/633/572 573/622/565 583/634/99 590/643/578 
f 591/644/579 583/645/99 574/636/117 584/635/573 
f 577/627/568 585/637/574 592/646/580 586/638/575 
f 578/628/569 586/638/575 593/647/89 587/639/108 
f 588/641/576 579/640/126 587/648/108 594/649/581 
f 585/637/574 581/632/571 589/642/577 592/646/580 
f 589/642/577 582/633/572 590/643/578 595/650/73 
f 596/651/582 590/652/578 583/645/99 591/644/579 
f 586/638/575 592/646/580 597/653/72 593/647/89 
f 594/649/581 587/648/108 593/654/89 598/655/583 
f 592/646/580 589/642/577 595/650/73 597/653/72 
f 599/656/584 595/657/73 590/652/578 596/651/582 
f 598/655/583 593/654/89 597/658/72 600/659/585 
f 600/659/585 597/658/72 595/657/73 599/656/584 
s 32
f 145/660/145 163/661/163 181/662/181 199/663/199 217/664/217 233/665/233 247/666/247 262/667/262 277/668/277 289/669/289 299/670/299 307/671/307 311/672/311 308/673/308 302/674/302 293/675/293 282/676/282 268/677/268 256/678/256 240/679/240 225/680/225 208/681/208 528/682/524 544/683/538 558/684/551 570/685/562 580/686/570 588/687/576 594/688/581 598/689/583 600/690/585 599/691/584 596/692/582 591/693/579 584/694/573 575/695/566 564/696/556 551/697/544 536/698/531 519/699/516 501/700/499 483/701/482 465/702/465 447/703/447 429/704/429 411/705/411 401/706/401 402/707/402 420/708/420 438/709/438 456/710/456 474/711/474 492/712/491 510/713/508 528/682/524 208/681/208 190/714/190 172/715/172 154/716/154 136/717/136 118/718/118 100/719/100 90/720/90 91/721/91 109/722/109 127/723/127 
s off
f 238/256/238 223/239/223 252/724/252 255/288/255 
f 223/725/223 239/277/239 253/273/253 252/272/252 
f 239/277/239 269/293/269 254/274/254 253/273/253 
f 269/293/269 283/308/283 266/726/266 254/274/254 
f 283/308/283 294/321/294 280/727/280 266/726/266 
f 294/321/294 303/330/303 291/728/291 280/727/280 
f 303/330/303 309/336/309 300/729/300 291/728/291 
f 309/336/309 310/337/310 305/730/305 300/729/300 
f 310/337/310 306/333/306 297/731/297 305/730/305 
f 306/333/306 298/325/298 287/732/287 297/731/297 
f 298/325/298 288/315/288 274/298/274 287/732/287 
f 288/315/288 261/301/261 275/299/275 274/298/274 
f 261/301/261 245/733/245 276/300/276 275/299/275 
f 245/264/245 260/281/260 273/314/273 276/734/276 
f 260/281/260 272/296/272 286/311/286 273/314/273 
f 272/296/272 285/310/285 296/323/296 286/311/286 
f 285/310/285 295/322/295 304/331/304 296/323/296 
f 295/322/295 290/317/290 301/328/301 304/331/304 
f 290/317/290 279/304/279 292/319/292 301/328/301 
f 279/304/279 265/287/265 281/306/281 292/319/292 
f 265/287/265 251/271/251 267/291/267 281/306/281 
f 251/271/251 238/256/238 255/288/255 267/291/267 
s 4
f 601/735/586 602/736/587 603/737/588 
f 601/735/586 603/737/588 604/738/589 
f 601/735/586 604/738/589 605/739/590 
f 601/735/586 605/739/590 606/740/591 
f 601/735/586 606/740/591 607/741/592 
f 601/735/586 607/741/592 608/742/593 
f 601/735/586 608/742/593 609/743/594 
f 601/735/586 609/743/594 610/744/595 
f 601/735/586 610/744/595 611/745/596 
f 601/735/586 611/745/596 612/746/597 
f 601/735/586 612/746/597 613/747/598 
f 601/735/586 613/747/598 602/736/587 
s 8
f 602/748/587 614/749/599 615/750/600 603/751/588 
f 603/752/588 615/753/600 616/754/601 604/755/589 
f 604/756/589 616/757/601 617/758/602 605/759/590 
f 605/759/590 617/758/602 618/760/603 606/761/591 
f 606/762/591 618/763/603 619/764/604 607/765/592 
f 607/766/592 619/767/604 620/768/605 608/769/593 
f 608/769/593 620/768/605 621/770/606 609/771/594 
f 609/772/594 621/773/606 622/774/607 610/775/595 
f 610/776/595 622/777/607 623/778/608 611/779/596 
f 611/779/596 623/778/608 624/780/609 612/781/597 
f 612/782/597 624/783/609 625/784/610 613/785/598 
f 613/786/598 625/787/610 614/749/599 602/748/587 
s 16
f 614/788/599 626/789/611 627/790/612 615/791/600 
f 615/791/600 627/790/612 628/792/613 616/793/601 
f 616/793/601 628/792/613 629/794/614 617/795/602 
f 617/795/602 629/794/614 630/796/615 618/797/603 
f 618/797/603 630/796/615 631/798/616 619/799/604 
f 619/799/604 631/798/616 632/800/617 620/801/605 
f 620/801/605 632/800/617 633/802/618 621/803/606 
f 621/803/606 633/802/618 634/804/619 622/805/607 
f 622/805/607 634/804/619 635/806/620 623/807/608 
f 623/807/608 635/806/620 636/808/621 624/809/609 
f 624/809/609 636/808/621 637/810/622 625/811/610 
f 625/811/610 637/810/622 626/812/611 614/813/599 
s 8
f 626/814/611 638/815/623 639/816/624 627/817/612 
f 627/817/612 639/816/624 640/818/625 628/819/613 
f 628/819/613 640/818/625 641/820/626 629/801/614 
f 629/801/614 641/820/626 642/821/627 630/822/615 
f 630/822/615 642/821/627 643/823/628 631/824/616 
f 631/824/616 643/823/628 644/825/629 632/826/617 
f 632/826/617 644/825/629 645/827/630 633/828/618 
f 633/828/618 645/827/630 646/829/631 634/830/619 
f 634/830/619 646/829/631 647/831/632 635/800/620 
f 635/800/620 647/831/632 648/832/633 636/833/621 
f 636/833/621 648/832/633 649/834/634 637/835/622 
f 637/835/622 649/834/634 638/815/623 626/814/611 
s 4
f 638/815/623 650/836/635 639/816/624 
f 639/816/624 650/836/635 640/818/625 
f 640/818/625 650/836/635 641/820/626 
f 641/820/626 650/836/635 642/821/627 
f 642/821/627 650/836/635 643/823/628 
f 643/823/628 650/836/635 644/825/629 
f 644/825/629 650/836/635 645/827/630 
f 645/827/630 650/836/635 646/829/631 
f 646/829/631 650/836/635 647/831/632 
f 647/831/632 650/836/635 648/832/633 
f 648/832/633 650/836/635 649/834/634 
f 649/834/634 650/836/635 638/815/623 
# 571 polygons - 88 triangles

